<svg version="1.1" id="Layer_1" xmlns="http://www.w3.org/2000/svg" xmlns:xlink="http://www.w3.org/1999/xlink" x="0px" y="0px"
	 width="100%" viewBox="0 0 1600 1600" enable-background="new 0 0 1600 1600" xml:space="preserve">
<path fill="#000000" opacity="1.000000" stroke="none" 
	d="
M877.000000,1601.000000 
	C584.666748,1601.000000 292.833435,1601.000000 1.000118,1601.000000 
	C1.000078,1067.666870 1.000078,534.333618 1.000039,1.000332 
	C534.333069,1.000221 1067.666138,1.000221 1600.999512,1.000111 
	C1600.999634,534.333008 1600.999634,1067.666016 1600.999756,1600.999512 
	C1359.833374,1601.000000 1118.666626,1601.000000 877.000000,1601.000000 
M1201.878662,1467.973389 
	C1234.179688,1467.982178 1266.480835,1468.012573 1298.781860,1467.992676 
	C1321.589478,1467.978638 1344.397217,1467.896362 1367.910645,1467.941528 
	C1388.799316,1457.559814 1409.653931,1447.108521 1430.612305,1436.869629 
	C1433.845703,1435.289917 1434.531372,1433.042725 1433.893677,1430.087158 
	C1426.315674,1394.967651 1418.934570,1359.802734 1410.981201,1324.767822 
	C1403.101196,1290.055542 1394.875732,1255.416992 1386.348877,1220.857788 
	C1377.157959,1183.605713 1367.573975,1146.448730 1357.904419,1109.317261 
	C1352.063232,1086.887085 1345.749634,1064.579590 1339.616577,1042.225830 
	C1335.384277,1026.799438 1331.097534,1011.388000 1326.841064,995.457581 
	C1326.570312,995.260803 1326.299683,995.064026 1326.016724,994.228882 
	C1325.956543,993.809326 1325.896362,993.389832 1325.842529,992.456909 
	C1325.571655,992.259094 1325.300659,992.061218 1325.018799,991.230469 
	C1324.958618,990.814636 1324.898438,990.398804 1324.926514,989.211670 
	C1323.602295,984.854065 1322.255249,980.503296 1320.957397,976.137878 
	C1309.905640,938.961121 1299.052002,901.724121 1287.752808,864.622742 
	C1279.822144,838.582031 1271.563599,812.633362 1262.962280,786.806519 
	C1248.532959,743.480530 1233.957031,700.199951 1218.980225,657.060913 
	C1207.378174,623.642639 1195.237549,590.408020 1183.024414,557.206482 
	C1172.443848,528.443176 1161.799683,499.692596 1150.502441,471.206635 
	C1137.151978,437.543396 1123.238159,404.099884 1109.253174,370.693176 
	C1097.405151,342.391113 1085.293457,314.195496 1072.949951,286.105988 
	C1063.286621,264.115601 1053.329468,242.246475 1043.070557,220.527634 
	C1029.387085,191.558578 1015.284912,162.787292 1001.466919,134.147491 
	C967.978943,134.147491 934.996094,134.147491 901.082397,134.016479 
	C886.129395,134.011063 871.176331,133.984543 856.223328,134.004730 
	C826.486572,134.044846 796.749817,134.110672 766.081848,134.036896 
	C734.420837,134.024673 702.759766,133.986526 671.099060,134.080673 
	C669.596375,134.085129 667.344360,134.845779 666.725830,135.964493 
	C663.951843,140.981491 661.643005,146.255722 658.645203,151.929092 
	C658.135437,153.173615 657.625610,154.418152 657.409851,155.705963 
	C657.409851,155.705963 657.464111,155.413437 657.464111,155.413437 
	C657.464111,155.413437 657.174194,155.347961 656.799805,155.757187 
	C653.161255,163.490921 649.522705,171.224655 645.355530,179.240829 
	C645.199707,179.812134 645.043945,180.383453 644.296997,181.326935 
	C641.492615,187.537369 638.688171,193.747803 635.313171,200.300339 
	C634.837158,201.519348 634.361084,202.738358 633.294556,204.329590 
	C626.560547,218.759460 619.652893,233.111282 613.128906,247.635437 
	C599.689819,277.554535 586.242737,307.473328 573.199890,337.566040 
	C561.274963,365.079620 549.389954,392.628876 538.356140,420.506256 
	C518.593262,470.437836 499.077881,520.475891 480.233307,570.759583 
	C466.160278,608.311157 452.904358,646.183105 440.011047,684.158997 
	C424.269135,730.525269 409.263702,777.141785 393.990509,823.666748 
	C389.293060,837.976074 384.586914,852.286682 380.192566,866.690552 
	C372.029053,893.449158 364.023468,920.256592 356.088623,947.084106 
	C351.967499,961.017456 348.138000,975.037048 344.023224,989.781433 
	C340.378693,1002.148438 336.531128,1014.459839 333.127258,1026.892700 
	C322.391266,1066.106567 311.424652,1105.263550 301.292450,1144.634399 
	C289.772583,1189.397339 278.852081,1234.317871 268.064453,1279.264404 
	C261.279297,1307.534790 255.135269,1335.960571 248.855698,1364.350220 
	C243.711319,1387.607666 238.791580,1410.914673 233.742645,1434.336914 
	C240.101700,1437.533569 246.080734,1440.588257 252.102158,1443.557007 
	C268.581726,1451.681885 285.079254,1459.770264 302.587036,1467.978027 
	C356.249146,1467.985474 409.911285,1468.001221 463.573364,1467.958252 
	C465.108124,1467.957031 466.642334,1467.333618 468.873047,1466.961182 
	C500.800629,1445.683838 532.745361,1424.431885 564.602966,1403.050293 
	C566.127319,1402.027100 567.724487,1399.921509 567.858154,1398.208496 
	C568.783020,1386.348877 569.344971,1374.460327 569.991394,1362.579468 
	C570.683044,1349.868286 571.308044,1337.153442 572.028442,1324.443970 
	C572.280457,1319.998779 572.641052,1315.555664 573.106018,1311.127686 
	C574.358887,1299.194336 575.722351,1287.272461 576.989319,1275.340576 
	C578.066467,1265.195557 578.805420,1255.007202 580.168457,1244.901978 
	C582.228088,1229.633301 584.546265,1214.395142 587.045044,1199.191650 
	C589.087219,1186.765869 591.554138,1174.409912 594.318909,1161.372803 
	C603.199036,1159.757202 612.082703,1158.160400 620.958618,1156.522095 
	C638.060181,1153.365356 655.142517,1150.101562 672.261047,1147.040039 
	C687.284058,1144.353027 702.342651,1141.864624 717.390869,1139.319824 
	C733.901062,1136.527832 750.410950,1133.732422 766.933105,1131.012573 
	C780.701843,1128.745728 794.489380,1126.593628 808.266235,1124.376221 
	C821.396790,1122.262817 834.514648,1120.069092 847.655762,1118.024292 
	C860.151428,1116.079956 872.669556,1114.280396 885.178406,1112.421387 
	C897.363953,1110.610352 909.548584,1108.793091 921.736755,1107.000000 
	C934.089417,1105.182495 946.448181,1103.406006 958.800293,1101.584839 
	C971.311462,1099.740479 983.813904,1097.836548 996.327454,1096.008789 
	C1007.379822,1094.394409 1018.427795,1092.736572 1029.504639,1091.307251 
	C1038.962402,1090.086670 1048.458374,1089.163452 1058.289917,1088.787598 
	C1061.865479,1103.205322 1065.749146,1117.555420 1068.937622,1132.058228 
	C1072.835693,1149.788818 1076.432007,1167.597168 1079.628784,1185.466797 
	C1082.168091,1199.660889 1083.988281,1213.986816 1085.976929,1228.275146 
	C1087.176880,1236.896484 1088.075195,1245.559692 1089.132935,1254.201172 
	C1090.408936,1264.625488 1091.858765,1275.031250 1092.954956,1285.474243 
	C1093.866699,1294.158936 1094.353271,1302.887695 1095.068604,1311.593628 
	C1096.363281,1327.350830 1097.892822,1343.092163 1098.929932,1358.865967 
	C1099.636108,1369.607910 1099.626709,1380.395508 1100.022095,1391.159668 
	C1100.268799,1397.874512 1101.744751,1403.517578 1108.960449,1406.773560 
	C1114.557983,1409.299194 1119.356567,1413.581421 1124.544556,1417.031006 
	C1149.658936,1433.730347 1174.785156,1450.412231 1200.092896,1467.548950 
	C1200.092896,1467.548950 1200.459595,1467.863892 1200.459595,1467.863892 
	C1200.459595,1467.863892 1200.942261,1467.841187 1201.878662,1467.973389 
z"/>
<path fill="#D22F2F" opacity="1.000000" stroke="none" 
	d="
M767.013062,134.165878 
	C796.749817,134.110672 826.486572,134.044846 856.223328,134.004730 
	C871.176331,133.984543 886.129395,134.011063 901.602539,134.429901 
	C902.913025,136.480469 903.561646,138.205536 904.514526,139.741882 
	C928.310120,178.109283 953.024536,215.940063 975.746948,254.931854 
	C1007.860474,310.038574 1039.087646,365.684082 1069.583862,421.703491 
	C1091.475952,461.917694 1111.880371,502.956604 1132.336182,543.933228 
	C1148.850952,577.015198 1164.843872,610.372009 1180.354980,643.936707 
	C1198.799561,683.849487 1217.011963,723.887085 1234.344482,764.291199 
	C1251.880859,805.169556 1268.572876,846.421570 1284.968140,887.774231 
	C1297.676025,919.826660 1309.337280,952.293701 1321.543579,984.546265 
	C1322.281128,986.495056 1323.723755,988.176941 1324.838379,989.983032 
	C1324.898438,990.398804 1324.958618,990.814636 1325.171265,991.721924 
	C1325.495605,992.465088 1325.666504,992.717346 1325.836304,992.970276 
	C1325.896362,993.389832 1325.956543,993.809326 1326.169922,994.722168 
	C1326.495239,995.466003 1326.665894,995.717468 1326.835083,995.969910 
	C1331.097534,1011.388000 1335.384277,1026.799438 1339.616577,1042.225830 
	C1345.749634,1064.579590 1352.063232,1086.887085 1357.904419,1109.317261 
	C1367.573975,1146.448730 1377.157959,1183.605713 1386.348877,1220.857788 
	C1394.875732,1255.416992 1403.101196,1290.055542 1410.981201,1324.767822 
	C1418.934570,1359.802734 1426.315674,1394.967651 1433.893677,1430.087158 
	C1434.531372,1433.042725 1433.845703,1435.289917 1430.612305,1436.869629 
	C1409.653931,1447.108521 1388.799316,1457.559814 1367.494507,1467.670776 
	C1367.078369,1467.400024 1366.922852,1466.965942 1366.877197,1466.601074 
	C1365.803711,1463.422241 1364.866943,1460.571045 1363.734741,1457.799561 
	C1325.064209,1363.126831 1286.484131,1268.416748 1247.632324,1173.818359 
	C1233.080078,1138.386108 1217.888794,1103.216431 1202.892822,1067.582153 
	C1174.737183,1002.225525 1146.697632,937.205017 1118.591553,872.213196 
	C1115.102417,864.144897 1116.855591,862.873047 1105.349731,865.895996 
	C1070.863037,874.956909 1036.303833,883.748474 1001.884766,893.058289 
	C916.944519,916.033508 832.604187,941.060791 749.035400,968.611633 
	C709.161621,981.757202 669.303772,995.053162 629.964905,1009.694763 
	C575.791260,1029.857666 522.128052,1051.390991 468.202820,1072.224854 
	C464.115967,1073.803833 461.829590,1076.332031 460.171387,1080.334106 
	C447.862762,1110.041626 435.274689,1139.633423 422.936951,1169.329102 
	C418.663422,1179.614990 414.850128,1190.092163 410.603333,1200.687378 
	C409.581665,1202.326904 408.623810,1203.695923 408.007751,1205.204468 
	C373.835052,1288.885254 339.683472,1372.574585 305.569611,1456.279419 
	C304.131195,1459.808838 303.070129,1463.492188 301.750854,1467.290405 
	C301.668427,1467.477051 301.569702,1467.873047 301.569672,1467.873047 
	C285.079254,1459.770264 268.581726,1451.681885 252.102158,1443.557007 
	C246.080734,1440.588257 240.101700,1437.533569 233.742645,1434.336914 
	C238.791580,1410.914673 243.711319,1387.607666 248.855698,1364.350220 
	C255.135269,1335.960571 261.279297,1307.534790 268.064453,1279.264404 
	C278.852081,1234.317871 289.772583,1189.397339 301.292450,1144.634399 
	C311.424652,1105.263550 322.391266,1066.106567 333.127258,1026.892700 
	C336.531128,1014.459839 340.378693,1002.148438 344.367798,989.200378 
	C345.503265,987.181335 346.483826,985.814575 347.054840,984.294006 
	C351.444519,972.605469 355.719055,960.873657 360.095398,949.180054 
	C386.361237,878.997253 414.551880,809.594177 444.540924,740.920959 
	C451.666321,724.604187 458.835419,708.306458 465.992126,691.630249 
	C466.008240,690.522400 466.016632,689.784241 466.319336,688.879028 
	C469.736572,682.474670 472.859558,676.237366 476.110168,669.749695 
	C476.489014,668.996765 476.740204,668.494080 477.147766,667.678955 
	C483.530182,653.910889 489.756287,640.455444 496.110229,626.749634 
	C496.489166,625.996704 496.740265,625.494080 497.147522,624.679443 
	C499.872803,618.578979 502.441956,612.790527 505.161987,606.766602 
	C505.544342,606.022827 505.775879,605.514709 506.222107,604.741455 
	C509.285522,598.650940 512.134216,592.825500 515.113525,586.660217 
	C515.504211,584.895691 515.764282,583.470886 516.317810,581.880005 
	C523.068420,569.142578 529.525635,556.571289 536.144409,543.692383 
	C537.872192,539.927185 539.438477,536.469727 541.260986,532.791016 
	C544.893616,526.282532 548.433411,520.076599 551.612793,513.691223 
	C558.508362,499.842377 565.219788,485.901825 572.225830,471.737427 
	C572.973145,469.996246 573.501038,468.516388 574.320068,466.868805 
	C577.401001,461.800323 580.190735,456.899567 583.104492,451.707520 
	C583.487305,450.615021 583.746094,449.813812 584.261108,448.791321 
	C587.338562,443.379639 590.159790,438.189209 593.105042,432.707581 
	C593.487671,431.615265 593.746277,430.814178 594.261047,429.791748 
	C597.019592,424.386688 599.521973,419.202972 602.315308,413.856506 
	C604.397705,410.795410 606.189087,407.897095 608.104492,404.707489 
	C608.487305,403.615021 608.746094,402.813812 609.261108,401.791260 
	C611.686340,397.055206 613.855408,392.540497 616.318115,387.862671 
	C620.082642,381.139465 623.553528,374.579376 627.317139,367.854858 
	C629.081360,364.802216 630.552856,361.914001 632.318115,358.862732 
	C635.749329,352.808380 638.886841,346.917084 642.317383,340.863464 
	C646.748352,333.140503 650.886414,325.579895 655.316956,317.854797 
	C657.079956,314.800934 658.550476,311.911591 660.011841,309.013245 
	C660.002747,309.004242 660.014832,309.014252 660.265625,308.870361 
	C661.013245,308.151489 661.510071,307.576508 662.208435,306.751038 
	C662.941589,305.337860 663.473267,304.175232 664.259766,302.793152 
	C666.684570,298.388885 668.854492,294.204071 671.317810,289.854065 
	C672.748901,287.467834 673.886658,285.246796 675.317017,282.864441 
	C677.747864,278.808502 679.886169,274.913849 682.313721,270.853149 
	C683.410217,269.133392 684.217346,267.579590 685.317017,265.864502 
	C687.747864,261.808533 689.886108,257.913818 692.313721,253.853333 
	C693.410217,252.131409 694.217346,250.575272 695.313721,248.853149 
	C696.410217,247.133286 697.217285,245.579437 698.316772,243.864487 
	C701.414246,238.808640 704.219360,233.913895 707.313782,228.853149 
	C708.410217,227.133301 709.217346,225.579453 710.315430,223.860291 
	C711.412415,222.138489 712.218445,220.582031 713.319580,218.868927 
	C717.084717,212.814621 720.554565,206.916992 724.306213,200.864319 
	C725.395630,199.475571 726.203308,198.241867 727.239868,196.805618 
	C727.980835,195.738586 728.492859,194.874100 729.260498,193.786469 
	C730.352234,191.717392 731.188354,189.871475 732.319275,187.869400 
	C734.750854,184.148590 736.887634,180.583954 739.306213,176.864288 
	C740.395508,175.475403 741.203003,174.241531 742.239380,172.805084 
	C742.980530,171.738815 743.492676,170.875153 744.259521,169.795959 
	C746.013550,167.054535 747.512878,164.528671 749.240356,161.800354 
	C749.980591,160.735840 750.492737,159.873795 751.259399,158.796143 
	C753.012939,156.056396 754.511902,153.532272 756.261963,150.795990 
	C757.676758,148.725815 758.840576,146.867767 760.233887,144.806229 
	C760.979492,143.736771 761.495483,142.870819 762.240601,141.802338 
	C762.983093,140.736084 763.496521,139.872345 764.255005,138.800797 
	C765.337708,137.117279 766.175415,135.641586 767.013062,134.165878 
M1000.003845,614.010376 
	C1000.003845,614.010376 1000.049500,613.990479 999.993591,613.248962 
	C998.263489,609.468384 996.605652,605.652832 994.792358,601.912598 
	C963.905640,538.202148 932.356812,474.833252 896.521362,413.710632 
	C881.774048,388.556793 866.541016,363.699158 847.874268,341.170105 
	C840.175659,331.878723 827.671326,331.806976 820.512207,341.622864 
	C808.353638,358.293579 796.091919,374.962891 785.145569,392.429932 
	C753.446594,443.012451 726.301208,496.127167 699.660034,549.484131 
	C688.801514,571.231506 678.487122,593.250610 667.519043,615.670593 
	C647.666565,658.040710 627.695007,700.355591 608.012268,742.804443 
	C598.278259,763.797424 589.076721,785.037231 579.283081,806.678467 
	C578.482422,808.325500 577.624695,809.947510 576.889587,811.623291 
	C554.271301,863.184753 531.654419,914.746887 509.080566,966.327820 
	C507.554626,969.814575 506.366028,973.449036 504.923248,977.023315 
	C504.923248,977.023315 504.978058,976.973694 505.704346,976.942017 
	C507.490692,976.066956 509.342010,975.302795 511.053925,974.300537 
	C556.473694,947.708557 601.893738,921.116882 647.274597,894.458557 
	C656.310974,889.150391 665.188477,883.571716 674.840027,877.994202 
	C684.151062,872.546753 693.471069,867.114807 702.771057,861.648499 
	C719.985718,851.530273 737.182556,841.381592 754.398376,831.265442 
	C768.085449,823.222839 781.778320,815.189941 795.489685,807.188660 
	C810.470581,798.446472 825.498230,789.784241 840.463379,781.015259 
	C854.442322,772.824158 868.348511,764.508850 882.318542,756.302429 
	C899.244568,746.359558 916.204102,736.473633 933.848694,726.315613 
	C943.641602,720.643738 953.453552,715.004456 963.223450,709.293213 
	C983.054321,697.700073 1002.872681,686.085510 1022.666016,674.428467 
	C1024.974731,673.068848 1028.173096,672.117981 1026.236572,668.118408 
	C1017.827698,650.749817 1009.496460,633.343506 1001.024109,615.363159 
	C1000.686401,614.895386 1000.348694,614.427673 1000.003845,614.010376 
z"/>
<path fill="#B71C1C" opacity="1.000000" stroke="none" 
	d="
M410.826630,1200.481934 
	C414.850128,1190.092163 418.663422,1179.614990 422.936951,1169.329102 
	C435.274689,1139.633423 447.862762,1110.041626 460.171387,1080.334106 
	C461.829590,1076.332031 464.115967,1073.803833 468.202820,1072.224854 
	C522.128052,1051.390991 575.791260,1029.857666 629.964905,1009.694763 
	C669.303772,995.053162 709.161621,981.757202 749.035400,968.611633 
	C832.604187,941.060791 916.944519,916.033508 1001.884766,893.058289 
	C1036.303833,883.748474 1070.863037,874.956909 1105.349731,865.895996 
	C1116.855591,862.873047 1115.102417,864.144897 1118.591553,872.213196 
	C1146.697632,937.205017 1174.737183,1002.225525 1202.478760,1067.625732 
	C1192.979492,1069.319824 1183.810669,1070.719482 1174.614624,1071.911011 
	C1157.198486,1074.167969 1139.755981,1076.224854 1122.344482,1078.516235 
	C1106.579956,1080.591064 1090.841919,1082.867676 1074.666748,1085.070068 
	C1068.806763,1086.092896 1063.372070,1087.100830 1057.937500,1088.108765 
	C1048.458374,1089.163452 1038.962402,1090.086670 1029.504639,1091.307251 
	C1018.427795,1092.736572 1007.379822,1094.394409 996.327454,1096.008789 
	C983.813904,1097.836548 971.311462,1099.740479 958.800293,1101.584839 
	C946.448181,1103.406006 934.089417,1105.182495 921.736755,1107.000000 
	C909.548584,1108.793091 897.363953,1110.610352 885.178406,1112.421387 
	C872.669556,1114.280396 860.151428,1116.079956 847.655762,1118.024292 
	C834.514648,1120.069092 821.396790,1122.262817 808.266235,1124.376221 
	C794.489380,1126.593628 780.701843,1128.745728 766.933105,1131.012573 
	C750.410950,1133.732422 733.901062,1136.527832 717.390869,1139.319824 
	C702.342651,1141.864624 687.284058,1144.353027 672.261047,1147.040039 
	C655.142517,1150.101562 638.060181,1153.365356 620.958618,1156.522095 
	C612.082703,1158.160400 603.199036,1159.757202 593.648865,1161.691650 
	C583.341003,1163.664673 573.703125,1165.319092 563.659790,1167.022461 
	C562.305176,1167.348145 561.370117,1167.693481 560.404846,1167.891602 
	C530.403259,1174.047974 500.349945,1179.963745 470.411713,1186.413574 
	C450.465485,1190.710693 430.682587,1195.765869 410.826630,1200.481934 
z"/>
<path fill="#E43834" opacity="1.000000" stroke="none" 
	d="
M1324.882324,989.597351 
	C1323.723755,988.176941 1322.281128,986.495056 1321.543579,984.546265 
	C1309.337280,952.293701 1297.676025,919.826660 1284.968140,887.774231 
	C1268.572876,846.421570 1251.880859,805.169556 1234.344482,764.291199 
	C1217.011963,723.887085 1198.799561,683.849487 1180.354980,643.936707 
	C1164.843872,610.372009 1148.850952,577.015198 1132.336182,543.933228 
	C1111.880371,502.956604 1091.475952,461.917694 1069.583862,421.703491 
	C1039.087646,365.684082 1007.860474,310.038574 975.746948,254.931854 
	C953.024536,215.940063 928.310120,178.109283 904.514526,139.741882 
	C903.561646,138.205536 902.913025,136.480469 902.067932,134.495422 
	C934.996094,134.147491 967.978943,134.147491 1001.466919,134.147491 
	C1015.284912,162.787292 1029.387085,191.558578 1043.070557,220.527634 
	C1053.329468,242.246475 1063.286621,264.115601 1072.949951,286.105988 
	C1085.293457,314.195496 1097.405151,342.391113 1109.253174,370.693176 
	C1123.238159,404.099884 1137.151978,437.543396 1150.502441,471.206635 
	C1161.799683,499.692596 1172.443848,528.443176 1183.024414,557.206482 
	C1195.237549,590.408020 1207.378174,623.642639 1218.980225,657.060913 
	C1233.957031,700.199951 1248.532959,743.480530 1262.962280,786.806519 
	C1271.563599,812.633362 1279.822144,838.582031 1287.752808,864.622742 
	C1299.052002,901.724121 1309.905640,938.961121 1320.957397,976.137878 
	C1322.255249,980.503296 1323.602295,984.854065 1324.882324,989.597351 
z"/>
<path fill="#C62828" opacity="1.000000" stroke="none" 
	d="
M574.028931,467.036499 
	C573.501038,468.516388 572.973145,469.996246 571.909912,471.865295 
	C570.126465,473.752045 568.585754,475.092957 567.684204,476.776215 
	C564.854065,482.060272 562.225220,487.453949 559.589844,492.840118 
	C553.371277,505.549347 547.193970,518.278748 540.728516,531.200073 
	C538.304749,535.600037 536.152344,539.800049 533.844971,544.312866 
	C527.793274,556.750488 521.896667,568.875244 515.727722,581.192749 
	C514.636963,583.257019 513.818481,585.128479 512.844910,587.312866 
	C510.126526,593.083801 507.563263,598.541931 504.740601,604.173096 
	C503.987488,605.230713 503.493744,606.115356 502.844238,607.318848 
	C500.459015,612.758484 498.229492,617.879272 495.732788,623.195190 
	C494.977051,624.593628 494.488525,625.796814 493.845001,627.312744 
	C491.793335,631.750305 489.896667,635.875183 487.749634,640.143799 
	C486.999481,640.858398 486.499725,641.429199 485.948792,642.369690 
	C484.265045,646.826233 482.632507,650.913147 480.749634,655.143799 
	C479.999481,655.858398 479.499725,656.429199 478.949402,657.367310 
	C477.932526,660.489746 476.966278,663.244873 475.732819,666.195190 
	C474.977081,667.593628 474.488556,668.796814 473.845764,670.311218 
	C472.461029,673.414978 471.230499,676.207458 469.749634,679.143799 
	C468.999542,679.858459 468.499786,680.429260 467.950531,681.364075 
	C467.267365,683.818787 466.633667,685.909363 465.732788,688.195190 
	C464.977051,689.593628 464.488525,690.796814 463.847290,692.308289 
	C462.796356,694.744385 461.898193,696.872192 460.749634,699.143799 
	C459.999481,699.858398 459.499725,700.429199 458.950500,701.364075 
	C458.267365,703.818787 457.633698,705.909363 456.749634,708.143799 
	C455.999481,708.858398 455.499725,709.429199 454.950500,710.364075 
	C454.267334,712.818787 453.633667,714.909363 452.749634,717.143799 
	C451.999512,717.858398 451.499756,718.429199 450.950531,719.364075 
	C450.267365,721.818787 449.633698,723.909363 448.749634,726.143799 
	C447.999512,726.858398 447.499756,727.429199 446.950562,728.364075 
	C446.267395,730.818787 445.633728,732.909363 444.749634,735.143799 
	C443.999512,735.858459 443.499756,736.429199 442.955719,737.362000 
	C442.607635,739.149353 442.303833,740.574646 441.749634,742.143799 
	C440.999512,742.858459 440.499756,743.429199 439.955719,744.362000 
	C439.607635,746.149353 439.303833,747.574646 438.749634,749.143799 
	C437.999512,749.858459 437.499756,750.429199 436.955688,751.362000 
	C436.607574,753.149353 436.303772,754.574646 435.749634,756.143799 
	C434.999512,756.858459 434.499756,757.429199 433.950500,758.364075 
	C433.267365,760.818787 432.633667,762.909363 431.749634,765.143799 
	C430.999512,765.858459 430.499756,766.429199 429.955688,767.362000 
	C429.607605,769.149353 429.303802,770.574646 428.749634,772.143799 
	C427.999512,772.858459 427.499756,773.429199 426.940552,774.365295 
	C425.920715,777.820374 424.960358,780.910217 423.749634,784.143799 
	C422.999512,784.858459 422.499756,785.429199 421.955688,786.362000 
	C421.607605,788.149353 421.303802,789.574646 420.749634,791.143799 
	C419.999512,791.858459 419.499756,792.429199 418.939941,793.366760 
	C417.919922,796.822327 416.959961,799.911194 415.749603,803.143799 
	C414.999481,803.858398 414.499725,804.429199 413.955688,805.362000 
	C413.607605,807.149353 413.303802,808.574646 412.749634,810.143799 
	C411.999481,810.858398 411.499725,811.429199 411.000000,812.375000 
	C411.000000,813.500000 411.000000,814.250000 410.749634,815.143799 
	C409.999542,815.858459 409.499786,816.429260 408.939972,817.366760 
	C407.919952,820.822327 406.959961,823.911194 405.749634,827.143799 
	C404.999542,827.858459 404.499786,828.429260 403.912964,829.364441 
	C403.217285,832.152588 402.608643,834.576294 401.749634,837.143799 
	C400.999512,837.858398 400.499756,838.429199 400.000000,839.375000 
	C400.000000,840.500000 400.000000,841.250000 399.749634,842.143799 
	C398.999542,842.858459 398.499786,843.429260 397.955750,844.362000 
	C397.607635,846.149353 397.303833,847.574646 396.749634,849.143799 
	C395.999512,849.858459 395.499756,850.429199 395.000000,851.375000 
	C395.000000,852.500000 395.000000,853.250000 394.749634,854.143799 
	C393.999512,854.858459 393.499756,855.429199 393.000000,856.375000 
	C393.000000,857.500000 393.000000,858.250000 392.749634,859.143799 
	C391.999512,859.858459 391.499756,860.429199 391.000000,861.375000 
	C391.000000,862.500000 391.000000,863.250000 390.749634,864.143799 
	C389.999512,864.858459 389.499756,865.429199 389.000000,866.375000 
	C389.000000,867.500000 389.000000,868.250000 388.740631,869.173096 
	C387.987518,870.230774 387.493744,871.115356 386.911194,872.355835 
	C385.881561,875.474487 384.940796,878.237244 383.740631,881.173096 
	C382.987488,882.230713 382.493713,883.115356 382.000000,884.375000 
	C382.000000,885.500000 382.000000,886.250000 381.749634,887.143799 
	C380.999542,887.858459 380.499786,888.429260 380.000000,889.375000 
	C380.000000,890.500000 380.000000,891.250000 379.749634,892.143799 
	C378.999481,892.858398 378.499725,893.429199 377.773254,893.823486 
	C377.697693,890.431274 377.848846,887.215637 378.000000,883.666687 
	C378.000000,882.888916 378.000000,882.444458 378.259369,881.826904 
	C379.012482,880.769226 379.506226,879.884644 380.000000,878.625000 
	C380.000000,877.500000 380.000000,876.750000 380.190155,875.898438 
	C380.586853,875.197937 380.793427,874.598999 381.000000,873.666687 
	C381.000000,872.888916 381.000000,872.444458 381.285370,871.810852 
	C383.380493,866.747803 385.190277,861.873901 387.000000,856.600037 
	C387.000000,855.133362 387.000000,854.066711 387.260864,852.840576 
	C388.014526,851.120728 388.507263,849.560364 389.089325,847.626953 
	C395.462219,827.415283 401.554443,807.513550 408.070801,787.751587 
	C420.062897,751.383240 431.975830,714.983154 444.528442,678.806763 
	C458.885406,637.430359 473.413818,596.100037 488.768433,555.086853 
	C504.934845,511.905243 521.866943,469.002411 539.024658,426.202301 
	C553.021606,391.286774 567.676636,356.631165 582.367004,321.999054 
	C590.354004,303.169922 598.942871,284.593597 607.408386,265.970581 
	C615.177429,248.879700 623.240417,231.921997 630.944092,214.802231 
	C632.461914,211.429153 632.931824,207.584518 633.885010,203.957367 
	C634.361084,202.738358 634.837158,201.519348 635.925049,200.010742 
	C641.924622,194.624481 643.505005,187.833527 644.888123,180.954758 
	C645.043945,180.383453 645.199707,179.812134 645.944214,178.982376 
	C649.613892,173.611649 652.954102,168.631393 655.656006,163.326050 
	C656.835693,161.009735 656.708130,158.027679 657.174194,155.347961 
	C657.174194,155.347961 657.464111,155.413437 657.464111,155.413437 
	C657.464111,155.413437 657.409851,155.705963 657.709473,155.608673 
	C660.672668,150.674255 663.336304,145.837112 666.165283,140.722702 
	C667.887146,139.296951 669.443542,138.148468 671.378784,137.162476 
	C675.881653,137.549957 680.005188,137.958405 684.129761,137.969666 
	C707.536255,138.033615 730.942871,137.991150 754.349487,138.018204 
	C757.301758,138.021622 760.658386,137.547134 760.750000,142.000000 
	C760.500000,142.000000 760.000000,142.000000 759.705566,142.153625 
	C757.607361,144.871506 755.803711,147.435760 753.849976,150.236877 
	C753.466614,150.982483 753.233276,151.491241 752.749634,152.143829 
	C751.999451,152.858429 751.499695,153.429214 750.849976,154.236862 
	C750.466614,154.982498 750.233337,155.491241 749.778748,156.254379 
	C748.705017,158.339172 747.852539,160.169586 746.837219,162.170532 
	C746.454773,162.565964 746.229919,162.785599 745.749634,163.143845 
	C744.999512,163.858475 744.499756,164.429245 743.849976,165.236877 
	C743.466614,165.982498 743.233337,166.491257 742.785400,167.244751 
	C741.713867,168.992996 740.856934,170.496490 739.771423,172.203430 
	C739.028564,173.271240 738.514282,174.135635 737.850037,175.236893 
	C737.466675,175.982513 737.233337,176.491257 736.849976,177.236862 
	C736.466614,177.982483 736.233276,178.491226 735.740601,179.173065 
	C734.987488,180.230743 734.493713,181.115356 733.749573,182.143829 
	C732.999512,182.858459 732.499756,183.429245 731.849976,184.236877 
	C731.466614,184.982483 731.233276,185.491241 730.850037,186.236877 
	C730.466736,186.982529 730.233398,187.491272 729.771423,188.203430 
	C729.028564,189.271240 728.514282,190.135620 727.785400,191.244751 
	C726.713867,192.992996 725.856934,194.496506 724.771362,196.203400 
	C724.028503,197.271194 723.514221,198.135590 722.849976,199.236877 
	C722.466675,199.982498 722.233337,200.491241 721.771362,201.203415 
	C721.028564,202.271225 720.514282,203.135620 719.849731,204.280853 
	C719.466248,205.374451 719.233154,206.187225 718.837219,207.170532 
	C718.454773,207.565964 718.229919,207.785599 717.749634,208.143845 
	C716.999512,208.858459 716.499756,209.429230 715.849731,210.280853 
	C715.466309,211.374466 715.233154,212.187241 714.749634,213.143829 
	C713.999451,213.858429 713.499695,214.429199 712.849976,215.236877 
	C712.466675,215.982498 712.233337,216.491257 711.849976,217.236893 
	C711.466675,217.982513 711.233337,218.491257 710.771362,219.203400 
	C710.028503,220.271210 709.514221,221.135590 708.849976,222.236877 
	C708.466675,222.982513 708.233337,223.491257 707.771362,224.203400 
	C707.028503,225.271210 706.514221,226.135590 705.849976,227.236877 
	C705.466675,227.982513 705.233337,228.491257 704.771423,229.203430 
	C704.028564,230.271240 703.514282,231.135635 702.849731,232.280853 
	C702.466309,233.374451 702.233154,234.187225 701.837219,235.170532 
	C701.454773,235.565964 701.229919,235.785599 700.749634,236.143829 
	C699.999451,236.858429 699.499695,237.429214 698.799011,238.251648 
	C698.065369,239.668884 697.532654,240.834442 696.849976,242.236877 
	C696.466614,242.982498 696.233276,243.491241 695.771362,244.203400 
	C695.028503,245.271225 694.514282,246.135605 693.849976,247.236877 
	C693.466675,247.982513 693.233337,248.491257 692.771362,249.203415 
	C692.028503,250.271225 691.514282,251.135605 690.850037,252.236893 
	C690.466736,252.982529 690.233398,253.491272 689.762695,254.225891 
	C689.016968,255.634506 688.508484,256.817261 687.749634,258.143860 
	C686.999573,258.858490 686.499817,259.429260 685.799072,260.251709 
	C685.065369,261.668915 684.532654,262.834442 683.849976,264.236877 
	C683.466675,264.982513 683.233337,265.491272 682.771362,266.203430 
	C682.028503,267.271240 681.514282,268.135620 680.849976,269.236877 
	C680.466675,269.982483 680.233337,270.491241 679.762695,271.225891 
	C679.016846,272.634491 678.508423,273.817230 677.749634,275.143860 
	C676.999512,275.858490 676.499756,276.429260 675.799011,277.251709 
	C675.065369,278.668915 674.532654,279.834442 673.849976,281.236877 
	C673.466675,281.982513 673.233337,282.491272 672.751221,283.213745 
	C671.668274,284.951660 670.834106,286.475830 669.849976,288.236877 
	C669.466614,288.982483 669.233276,289.491241 668.762695,290.225891 
	C668.016907,291.634521 667.508484,292.817261 666.749634,294.143860 
	C665.999512,294.858459 665.499756,295.429230 664.799011,296.251678 
	C664.065369,297.668915 663.532715,298.834473 662.830200,300.296326 
	C661.106934,303.395081 659.553467,306.197540 657.746948,309.218567 
	C656.329285,311.624756 655.164673,313.812378 653.849976,316.236877 
	C653.466614,316.982483 653.233276,317.491241 652.762695,318.225891 
	C652.016907,319.634521 651.508484,320.817261 650.749634,322.143860 
	C649.999512,322.858459 649.499756,323.429230 648.785156,324.266724 
	C647.713562,326.688965 646.856812,328.844482 645.749634,331.143860 
	C644.999512,331.858459 644.499756,332.429230 643.789429,333.259430 
	C642.719238,335.345886 641.859619,337.172943 640.849976,339.236877 
	C640.466675,339.982513 640.233337,340.491241 639.744629,341.223236 
	C638.659546,343.297638 637.829773,345.148834 636.749634,347.143860 
	C635.999512,347.858459 635.499756,348.429230 634.787170,349.262939 
	C633.382874,352.017242 632.191467,354.508636 630.850037,357.236877 
	C630.466736,357.982513 630.233398,358.491272 629.746948,359.218567 
	C628.329163,361.624725 627.164551,363.812347 625.849976,366.236877 
	C625.466675,366.982513 625.233337,367.491241 624.743958,368.222260 
	C623.325256,370.963013 622.162598,373.481506 620.749634,376.143860 
	C619.999512,376.858459 619.499756,377.429230 618.787170,378.262939 
	C617.382935,381.017273 616.191467,383.508636 614.849976,386.236877 
	C614.466675,386.982483 614.233337,387.491241 613.744751,388.221130 
	C611.659668,391.961487 609.829834,395.480743 607.834656,399.287415 
	C606.446167,401.383209 605.223083,403.191589 603.847290,405.308289 
	C602.796387,407.744415 601.898193,409.872223 600.850037,412.236877 
	C600.466736,412.982513 600.233398,413.491272 599.744629,414.221313 
	C597.326172,418.628418 595.163086,422.814209 592.834656,427.287415 
	C591.446228,429.383240 590.223083,431.191620 588.844971,433.312744 
	C586.793335,437.750305 584.896667,441.875153 582.834656,446.287415 
	C581.446228,448.383240 580.223083,450.191620 578.844727,452.313232 
	C577.135986,457.429840 575.582458,462.233185 574.028931,467.036499 
z"/>
<path fill="#C62828" opacity="1.000000" stroke="none" 
	d="
M1058.113770,1088.448242 
	C1063.372070,1087.100830 1068.806763,1086.092896 1074.693115,1085.439697 
	C1075.441650,1086.746216 1075.700073,1087.712158 1076.040771,1088.648193 
	C1108.500854,1177.806763 1139.179932,1267.573608 1167.563477,1358.113037 
	C1178.863770,1394.159546 1189.516357,1430.409058 1200.324463,1466.699585 
	C1200.185181,1466.833008 1199.907104,1467.100220 1199.907104,1467.100220 
	C1174.785156,1450.412231 1149.658936,1433.730347 1124.544556,1417.031006 
	C1119.356567,1413.581421 1114.557983,1409.299194 1108.960449,1406.773560 
	C1101.744751,1403.517578 1100.268799,1397.874512 1100.022095,1391.159668 
	C1099.626709,1380.395508 1099.636108,1369.607910 1098.929932,1358.865967 
	C1097.892822,1343.092163 1096.363281,1327.350830 1095.068604,1311.593628 
	C1094.353271,1302.887695 1093.866699,1294.158936 1092.954956,1285.474243 
	C1091.858765,1275.031250 1090.408936,1264.625488 1089.132935,1254.201172 
	C1088.075195,1245.559692 1087.176880,1236.896484 1085.976929,1228.275146 
	C1083.988281,1213.986816 1082.168091,1199.660889 1079.628784,1185.466797 
	C1076.432007,1167.597168 1072.835693,1149.788818 1068.937622,1132.058228 
	C1065.749146,1117.555420 1061.865479,1103.205322 1058.113770,1088.448242 
z"/>
<path fill="#C62828" opacity="1.000000" stroke="none" 
	d="
M564.065308,1166.973389 
	C573.703125,1165.319092 583.341003,1163.664673 593.405762,1162.016724 
	C591.554138,1174.409912 589.087219,1186.765869 587.045044,1199.191650 
	C584.546265,1214.395142 582.228088,1229.633301 580.168457,1244.901978 
	C578.805420,1255.007202 578.066467,1265.195557 576.989319,1275.340576 
	C575.722351,1287.272461 574.358887,1299.194336 573.106018,1311.127686 
	C572.641052,1315.555664 572.280457,1319.998779 572.028442,1324.443970 
	C571.308044,1337.153442 570.683044,1349.868286 569.991394,1362.579468 
	C569.344971,1374.460327 568.783020,1386.348877 567.858154,1398.208496 
	C567.724487,1399.921509 566.127319,1402.027100 564.602966,1403.050293 
	C532.745361,1424.431885 500.800629,1445.683838 468.405151,1466.980591 
	C467.937286,1467.000000 467.710876,1466.923218 467.854675,1466.572510 
	C468.465485,1464.797241 468.968994,1463.383423 469.394226,1461.946411 
	C497.148895,1368.157349 527.435120,1275.182495 559.162537,1182.670166 
	C560.940125,1177.487061 562.437500,1172.207886 564.065308,1166.973389 
z"/>
<path fill="#C62828" opacity="1.000000" stroke="none" 
	d="
M431.999969,765.000000 
	C432.633667,762.909363 433.267365,760.818787 434.200867,758.220215 
	C435.000488,757.141541 435.500244,756.570801 436.000000,756.000000 
	C436.303772,754.574646 436.607574,753.149353 437.206055,751.218140 
	C438.000488,750.141541 438.500244,749.570801 439.000000,749.000000 
	C439.303833,747.574646 439.607635,746.149353 440.206085,744.218140 
	C441.000488,743.141541 441.500244,742.570801 442.000000,742.000000 
	C442.303833,740.574646 442.607635,739.149353 443.206085,737.218140 
	C444.000488,736.141541 444.500244,735.570801 445.000000,735.000000 
	C445.633728,732.909363 446.267395,730.818787 447.200928,728.220215 
	C448.000488,727.141541 448.500244,726.570801 449.000000,726.000000 
	C449.633698,723.909363 450.267365,721.818787 451.200897,719.220215 
	C452.000488,718.141541 452.500244,717.570801 453.000000,717.000000 
	C453.633667,714.909363 454.267334,712.818787 455.200867,710.220215 
	C456.000488,709.141541 456.500244,708.570801 457.000000,708.000000 
	C457.633698,705.909363 458.267365,703.818787 459.200897,701.220215 
	C460.000488,700.141541 460.500244,699.570801 461.000000,699.000000 
	C461.898193,696.872192 462.796356,694.744385 464.178101,692.308289 
	C465.102600,692.000000 465.543518,692.000000 465.984436,692.000000 
	C458.835419,708.306458 451.666321,724.604187 444.540924,740.920959 
	C414.551880,809.594177 386.361237,878.997253 360.095398,949.180054 
	C355.719055,960.873657 351.444519,972.605469 347.054840,984.294006 
	C346.483826,985.814575 345.503265,987.181335 344.444580,988.818481 
	C348.138000,975.037048 351.967499,961.017456 356.088623,947.084106 
	C364.023468,920.256592 372.029053,893.449158 380.192566,866.690552 
	C384.586914,852.286682 389.293060,837.976074 393.990509,823.666748 
	C409.263702,777.141785 424.269135,730.525269 440.011047,684.158997 
	C452.904358,646.183105 466.160278,608.311157 480.233307,570.759583 
	C499.077881,520.475891 518.593262,470.437836 538.356140,420.506256 
	C549.389954,392.628876 561.274963,365.079620 573.199890,337.566040 
	C586.242737,307.473328 599.689819,277.554535 613.128906,247.635437 
	C619.652893,233.111282 626.560547,218.759460 633.589783,204.143478 
	C632.931824,207.584518 632.461914,211.429153 630.944092,214.802231 
	C623.240417,231.921997 615.177429,248.879700 607.408386,265.970581 
	C598.942871,284.593597 590.354004,303.169922 582.367004,321.999054 
	C567.676636,356.631165 553.021606,391.286774 539.024658,426.202301 
	C521.866943,469.002411 504.934845,511.905243 488.768433,555.086853 
	C473.413818,596.100037 458.885406,637.430359 444.528442,678.806763 
	C431.975830,714.983154 420.062897,751.383240 408.070801,787.751587 
	C401.554443,807.513550 395.462219,827.415283 388.910950,847.911743 
	C388.095490,850.046326 387.547729,851.523132 387.000000,853.000000 
	C387.000000,854.066711 387.000000,855.133362 386.721954,856.802246 
	C384.629272,862.269653 382.814636,867.134827 381.000000,872.000000 
	C381.000000,872.444458 381.000000,872.888916 380.849976,873.903564 
	C380.466644,874.982483 380.233337,875.491211 380.000000,876.000000 
	C380.000000,876.750000 380.000000,877.500000 379.740631,878.798096 
	C378.987518,880.230774 378.493774,881.115356 378.000000,882.000000 
	C378.000000,882.444458 378.000000,882.888916 377.813446,883.970825 
	C372.830048,897.604431 369.139679,910.905823 366.163666,924.422546 
	C367.869354,922.221313 369.065125,919.872559 369.936829,917.409119 
	C372.689789,909.629150 375.321411,901.806274 378.250366,893.856201 
	C379.000488,893.141541 379.500244,892.570740 380.000000,892.000000 
	C380.000000,891.250000 380.000000,890.500000 380.250366,889.231201 
	C381.000458,888.141541 381.500214,887.570740 382.000000,887.000000 
	C382.000000,886.250000 382.000000,885.500000 382.259369,884.201904 
	C383.012482,882.769226 383.506256,881.884644 384.000000,881.000000 
	C384.940796,878.237244 385.881561,875.474487 387.139832,872.152466 
	C387.971558,870.728821 388.485809,869.864441 389.000000,869.000000 
	C389.000000,868.250000 389.000000,867.500000 389.250366,866.231201 
	C390.000488,865.141602 390.500244,864.570801 391.000000,864.000000 
	C391.000000,863.250000 391.000000,862.500000 391.250366,861.231140 
	C392.000458,860.141541 392.500214,859.570740 393.000000,859.000000 
	C393.000000,858.250000 393.000000,857.500000 393.250366,856.231201 
	C394.000488,855.141541 394.500244,854.570801 395.000000,854.000000 
	C395.000000,853.250000 395.000000,852.500000 395.250366,851.231140 
	C396.000458,850.141541 396.500214,849.570740 397.000000,849.000000 
	C397.303833,847.574646 397.607635,846.149353 398.206085,844.218140 
	C399.000488,843.141541 399.500244,842.570801 400.000000,842.000000 
	C400.000000,841.250000 400.000000,840.500000 400.250366,839.231201 
	C401.000488,838.141541 401.500244,837.570801 402.000000,837.000000 
	C402.608643,834.576294 403.217285,832.152588 404.163330,829.220581 
	C405.000488,828.141541 405.500244,827.570801 406.000000,827.000000 
	C406.959961,823.911194 407.919952,820.822327 409.190338,817.222900 
	C410.000519,816.141602 410.500275,815.570801 411.000000,815.000000 
	C411.000000,814.250000 411.000000,813.500000 411.250366,812.231201 
	C412.000519,811.141602 412.500275,810.570801 413.000000,810.000000 
	C413.303802,808.574646 413.607605,807.149353 414.206055,805.218140 
	C415.000458,804.141541 415.500214,803.570740 415.999969,803.000000 
	C416.959961,799.911194 417.919922,796.822327 419.190308,793.222900 
	C420.000519,792.141602 420.500275,791.570801 421.000000,791.000000 
	C421.303802,789.574646 421.607605,788.149353 422.206055,786.218140 
	C423.000458,785.141541 423.500214,784.570740 424.000000,784.000000 
	C424.960358,780.910217 425.920715,777.820374 427.190918,774.221436 
	C428.000488,773.141541 428.500244,772.570801 429.000000,772.000000 
	C429.303802,770.574646 429.607605,769.149353 430.206055,767.218140 
	C431.000458,766.141541 431.500214,765.570740 431.999969,765.000000 
z"/>
<path fill="#C62828" opacity="1.000000" stroke="none" 
	d="
M671.000000,137.000000 
	C669.443542,138.148468 667.887146,139.296951 665.950684,140.988342 
	C663.435913,144.833221 661.301147,148.135193 659.166382,151.437149 
	C661.643005,146.255722 663.951843,140.981491 666.725830,135.964493 
	C667.344360,134.845779 669.596375,134.085129 671.099060,134.080673 
	C702.759766,133.986526 734.420837,134.024673 766.547485,134.101379 
	C766.175415,135.641586 765.337708,137.117279 763.985718,138.556168 
	C760.863586,137.683121 758.260620,136.138321 755.647156,136.120239 
	C729.379211,135.938263 703.109497,135.985809 676.840515,136.047882 
	C674.892944,136.052490 672.946777,136.668320 671.000000,137.000000 
z"/>
<path fill="#DD6060" opacity="1.000000" stroke="none" 
	d="
M302.078369,1467.925537 
	C301.569702,1467.873047 301.668427,1467.477051 302.235535,1467.266968 
	C308.466034,1467.037964 314.129425,1467.005493 319.792786,1467.002197 
	C369.098816,1466.972900 418.404846,1466.948853 467.710876,1466.923340 
	C467.710876,1466.923218 467.937286,1467.000000 468.057037,1467.000122 
	C466.642334,1467.333618 465.108124,1467.957031 463.573364,1467.958252 
	C409.911285,1468.001221 356.249146,1467.985474 302.078369,1467.925537 
z"/>
<path fill="#DD6060" opacity="1.000000" stroke="none" 
	d="
M1366.922852,1466.965942 
	C1366.922852,1466.965942 1367.078369,1467.400024 1367.141602,1467.622314 
	C1344.397217,1467.896362 1321.589478,1467.978638 1298.781860,1467.992676 
	C1266.480835,1468.012573 1234.179688,1467.982178 1201.424072,1467.693481 
	C1200.969360,1467.413574 1201.024658,1466.988647 1201.491455,1466.990723 
	C1256.946533,1466.983887 1311.934692,1466.974854 1366.922852,1466.965942 
z"/>
<path fill="#C62828" opacity="1.000000" stroke="none" 
	d="
M656.987000,155.552582 
	C656.708130,158.027679 656.835693,161.009735 655.656006,163.326050 
	C652.954102,168.631393 649.613892,173.611649 646.208496,178.841156 
	C649.522705,171.224655 653.161255,163.490921 656.987000,155.552582 
z"/>
<path fill="#C62828" opacity="1.000000" stroke="none" 
	d="
M644.592529,181.140839 
	C643.505005,187.833527 641.924622,194.624481 636.210327,199.839691 
	C638.688171,193.747803 641.492615,187.537369 644.592529,181.140839 
z"/>
<path fill="#C62828" opacity="1.000000" stroke="none" 
	d="
M658.905762,151.683121 
	C661.301147,148.135193 663.435913,144.833221 665.785278,141.265625 
	C663.336304,145.837112 660.672668,150.674255 657.562439,155.587036 
	C657.625610,154.418152 658.135437,153.173615 658.905762,151.683121 
z"/>
<path fill="#E43834" opacity="1.000000" stroke="none" 
	d="
M1325.839355,992.713623 
	C1325.666504,992.717346 1325.495605,992.465088 1325.176758,992.038452 
	C1325.300659,992.061218 1325.571655,992.259094 1325.839355,992.713623 
z"/>
<path fill="#E43834" opacity="1.000000" stroke="none" 
	d="
M1326.838135,995.713745 
	C1326.665894,995.717468 1326.495239,995.466003 1326.176025,995.041382 
	C1326.299683,995.064026 1326.570312,995.260803 1326.838135,995.713745 
z"/>
<path fill="#C62828" opacity="1.000000" stroke="none" 
	d="
M1201.024658,1466.988647 
	C1201.024658,1466.988647 1200.969360,1467.413574 1200.955811,1467.627441 
	C1200.942261,1467.841187 1200.459595,1467.863892 1200.459595,1467.863892 
	C1200.459595,1467.863892 1200.092896,1467.548950 1200.000000,1467.324585 
	C1199.907104,1467.100220 1200.185181,1466.833008 1200.467529,1466.801270 
	C1200.750000,1466.769409 1201.024658,1466.988647 1201.024658,1466.988647 
z"/>
<path fill="#E47272" opacity="1.000000" stroke="none" 
	d="
M1201.491455,1466.990723 
	C1201.024658,1466.988647 1200.750000,1466.769409 1200.606934,1466.667725 
	C1189.516357,1430.409058 1178.863770,1394.159546 1167.563477,1358.113037 
	C1139.179932,1267.573608 1108.500854,1177.806763 1076.040771,1088.648193 
	C1075.700073,1087.712158 1075.441650,1086.746216 1075.118652,1085.424805 
	C1090.841919,1082.867676 1106.579956,1080.591064 1122.344482,1078.516235 
	C1139.755981,1076.224854 1157.198486,1074.167969 1174.614624,1071.911011 
	C1183.810669,1070.719482 1192.979492,1069.319824 1202.574707,1067.970581 
	C1217.888794,1103.216431 1233.080078,1138.386108 1247.632324,1173.818359 
	C1286.484131,1268.416748 1325.064209,1363.126831 1363.734741,1457.799561 
	C1364.866943,1460.571045 1365.803711,1463.422241 1366.877197,1466.601074 
	C1311.934692,1466.974854 1256.946533,1466.983887 1201.491455,1466.990723 
z"/>
<path fill="#E47272" opacity="1.000000" stroke="none" 
	d="
M467.854675,1466.572632 
	C418.404846,1466.948853 369.098816,1466.972900 319.792786,1467.002197 
	C314.129425,1467.005493 308.466034,1467.037964 302.317993,1467.080322 
	C303.070129,1463.492188 304.131195,1459.808838 305.569611,1456.279419 
	C339.683472,1372.574585 373.835052,1288.885254 408.007751,1205.204468 
	C408.623810,1203.695923 409.581665,1202.326904 410.603333,1200.687378 
	C430.682587,1195.765869 450.465485,1190.710693 470.411713,1186.413574 
	C500.349945,1179.963745 530.403259,1174.047974 560.404846,1167.891602 
	C561.370117,1167.693481 562.305176,1167.348145 563.659790,1167.022461 
	C562.437500,1172.207886 560.940125,1177.487061 559.162537,1182.670166 
	C527.435120,1275.182495 497.148895,1368.157349 469.394226,1461.946411 
	C468.968994,1463.383423 468.465485,1464.797241 467.854675,1466.572632 
z"/>
<path fill="#000000" opacity="1.000000" stroke="none" 
	d="
M933.149109,726.563049 
	C916.204102,736.473633 899.244568,746.359558 882.318542,756.302429 
	C868.348511,764.508850 854.442322,772.824158 840.463379,781.015259 
	C825.498230,789.784241 810.470581,798.446472 795.489685,807.188660 
	C781.778320,815.189941 768.085449,823.222839 754.398376,831.265442 
	C737.182556,841.381592 719.985718,851.530273 702.771057,861.648499 
	C693.471069,867.114807 684.151062,872.546753 674.415161,877.677063 
	C685.790405,848.232910 697.606140,819.112305 709.383240,789.976074 
	C714.700623,776.821106 719.791687,763.572754 725.259949,750.481323 
	C730.370239,738.246765 735.843750,726.163940 741.459473,713.816772 
	C742.842407,710.693359 743.787598,707.708557 745.025391,704.850586 
	C756.154724,679.155029 767.205933,653.424500 778.532471,627.815918 
	C793.852417,593.178711 809.395203,558.640015 825.024475,523.736877 
	C828.051208,517.116455 830.895813,510.818237 834.182312,503.541656 
	C837.905396,511.187073 841.050537,517.645752 844.184448,524.393799 
	C844.439270,524.839294 844.705322,524.995483 844.948181,525.099121 
	C844.924927,525.046448 844.819702,525.093140 844.761658,525.469604 
	C847.311035,531.542847 849.921936,537.238159 852.525269,542.936890 
	C858.005005,554.932129 863.604248,566.874756 868.930481,578.937744 
	C878.110657,599.729187 887.142456,620.586243 896.193848,641.434326 
	C904.193726,659.860291 912.119995,678.318115 920.109009,696.748840 
	C924.423035,706.701050 928.800354,716.625854 933.149109,726.563049 
z"/>
<path fill="#6D4C41" opacity="1.000000" stroke="none" 
	d="
M844.195679,524.104492 
	C841.050537,517.645752 837.905396,511.187073 834.182312,503.541656 
	C830.895813,510.818237 828.051208,517.116455 824.696533,523.827332 
	C784.907532,547.194275 745.642944,570.173157 706.341431,593.088745 
	C693.585571,600.526306 680.733276,607.798279 667.925171,615.146057 
	C678.487122,593.250610 688.801514,571.231506 699.660034,549.484131 
	C726.301208,496.127167 753.446594,443.012451 785.145569,392.429932 
	C796.091919,374.962891 808.353638,358.293579 820.512207,341.622864 
	C827.671326,331.806976 840.175659,331.878723 847.874268,341.170105 
	C866.541016,363.699158 881.774048,388.556793 896.521362,413.710632 
	C932.356812,474.833252 963.905640,538.202148 994.792358,601.912598 
	C996.605652,605.652832 998.263489,609.468384 999.648438,613.607117 
	C997.912048,613.447937 996.406982,613.124695 995.146179,612.385010 
	C952.874084,587.585815 910.647339,562.709290 868.353027,537.948059 
	C860.642700,533.433960 852.670837,529.366699 844.819702,525.093140 
	C844.819702,525.093140 844.924927,525.046448 844.824646,524.920044 
	C844.555115,524.558533 844.378906,524.328796 844.195679,524.104492 
z"/>
<path fill="#8C6D62" opacity="1.000000" stroke="none" 
	d="
M667.722107,615.408325 
	C680.733276,607.798279 693.585571,600.526306 706.341431,593.088745 
	C745.642944,570.173157 784.907532,547.194275 824.514404,524.149536 
	C809.395203,558.640015 793.852417,593.178711 778.532471,627.815918 
	C767.205933,653.424500 756.154724,679.155029 745.025391,704.850586 
	C743.787598,707.708557 742.842407,710.693359 741.324829,713.591675 
	C739.264160,713.985168 737.440369,714.063904 736.045532,714.877747 
	C702.144470,734.657959 668.303833,754.541626 634.419739,774.350952 
	C616.189087,785.009033 597.898071,795.563965 579.634277,806.165405 
	C589.076721,785.037231 598.278259,763.797424 608.012268,742.804443 
	C627.695007,700.355591 647.666565,658.040710 667.722107,615.408325 
z"/>
<path fill="#E47272" opacity="1.000000" stroke="none" 
	d="
M579.458679,806.421936 
	C597.898071,795.563965 616.189087,785.009033 634.419739,774.350952 
	C668.303833,754.541626 702.144470,734.657959 736.045532,714.877747 
	C737.440369,714.063904 739.264160,713.985168 741.022705,713.789124 
	C735.843750,726.163940 730.370239,738.246765 725.259949,750.481323 
	C719.791687,763.572754 714.700623,776.821106 709.383240,789.976074 
	C697.606140,819.112305 685.790405,848.232910 674.064758,877.738831 
	C665.188477,883.571716 656.310974,889.150391 647.274597,894.458557 
	C601.893738,921.116882 556.473694,947.708557 511.053925,974.300537 
	C509.342010,975.302795 507.490692,976.066956 505.351379,976.968872 
	C504.998444,976.995728 505.020477,977.014771 505.020477,977.014771 
	C506.366028,973.449036 507.554626,969.814575 509.080566,966.327820 
	C531.654419,914.746887 554.271301,863.184753 576.889587,811.623291 
	C577.624695,809.947510 578.482422,808.325500 579.458679,806.421936 
z"/>
<path fill="#8C6D62" opacity="1.000000" stroke="none" 
	d="
M844.761658,525.469604 
	C852.670837,529.366699 860.642700,533.433960 868.353027,537.948059 
	C910.647339,562.709290 952.874084,587.585815 995.146179,612.385010 
	C996.406982,613.124695 997.912048,613.447937 999.676392,613.977905 
	C1000.049500,613.990479 1000.003845,614.010376 1000.071045,614.271118 
	C1000.471130,615.004944 1000.804077,615.477905 1001.137024,615.950867 
	C1009.496460,633.343506 1017.827698,650.749817 1026.236572,668.118408 
	C1028.173096,672.117981 1024.974731,673.068848 1022.666016,674.428467 
	C1002.872681,686.085510 983.054321,697.700073 963.223450,709.293213 
	C953.453552,715.004456 943.641602,720.643738 933.498901,726.439331 
	C928.800354,716.625854 924.423035,706.701050 920.109009,696.748840 
	C912.119995,678.318115 904.193726,659.860291 896.193848,641.434326 
	C887.142456,620.586243 878.110657,599.729187 868.930481,578.937744 
	C863.604248,566.874756 858.005005,554.932129 852.525269,542.936890 
	C849.921936,537.238159 847.311035,531.542847 844.761658,525.469604 
z"/>
<path fill="#C62828" opacity="1.000000" stroke="none" 
	d="
M671.378784,137.162476 
	C672.946777,136.668320 674.892944,136.052490 676.840515,136.047882 
	C703.109497,135.985809 729.379211,135.938263 755.647156,136.120239 
	C758.260620,136.138321 760.863586,137.683121 763.740723,138.763977 
	C763.496521,139.872345 762.983093,140.736084 761.987671,141.800964 
	C761.337097,142.001419 761.168518,142.000717 761.000000,142.000000 
	C760.658386,137.547134 757.301758,138.021622 754.349487,138.018204 
	C730.942871,137.991150 707.536255,138.033615 684.129761,137.969666 
	C680.005188,137.958405 675.881653,137.549957 671.378784,137.162476 
z"/>
<path fill="#C62828" opacity="1.000000" stroke="none" 
	d="
M541.000000,531.000000 
	C547.193970,518.278748 553.371277,505.549347 559.589844,492.840118 
	C562.225220,487.453949 564.854065,482.060272 567.684204,476.776215 
	C568.585754,475.092957 570.126465,473.752045 571.690552,472.126587 
	C565.219788,485.901825 558.508362,499.842377 551.612793,513.691223 
	C548.433411,520.076599 544.893616,526.282532 541.259827,532.455444 
	C541.001648,531.894104 541.000854,531.447021 541.000000,531.000000 
z"/>
<path fill="#C62828" opacity="1.000000" stroke="none" 
	d="
M488.000000,640.000000 
	C489.896667,635.875183 491.793335,631.750305 494.175537,627.312744 
	C495.101501,627.000000 495.541962,627.000000 495.982422,627.000000 
	C489.756287,640.455444 483.530182,653.910889 476.999023,667.443298 
	C476.462646,667.013489 476.231323,666.506714 476.000000,666.000000 
	C476.966278,663.244873 477.932526,660.489746 479.199768,657.223511 
	C480.000488,656.141541 480.500244,655.570801 481.000000,655.000000 
	C482.632507,650.913147 484.265045,646.826233 486.199158,642.225830 
	C487.000488,641.141541 487.500244,640.570801 488.000000,640.000000 
z"/>
<path fill="#C62828" opacity="1.000000" stroke="none" 
	d="
M516.000000,581.000000 
	C521.896667,568.875244 527.793274,556.750488 534.175537,544.312866 
	C535.101746,544.000000 535.542358,544.000000 535.982910,544.000000 
	C529.525635,556.571289 523.068420,569.142578 516.310913,581.618225 
	C516.007080,581.348389 516.003540,581.174194 516.000000,581.000000 
z"/>
<path fill="#C62828" opacity="1.000000" stroke="none" 
	d="
M651.000000,322.000000 
	C651.508484,320.817261 652.016907,319.634521 653.096008,318.225891 
	C654.111084,318.000000 654.555542,318.000000 655.003845,318.003174 
	C655.007690,318.006317 655.024414,318.019257 655.024414,318.019287 
	C650.886414,325.579895 646.748352,333.140503 642.309204,340.854828 
	C642.008118,341.008545 642.000000,341.000000 641.900330,340.737915 
	C641.533752,339.983887 641.266846,339.491943 641.000000,339.000000 
	C641.859619,337.172943 642.719238,335.345886 644.039795,333.115601 
	C645.000488,332.141541 645.500244,331.570770 646.000000,331.000000 
	C646.856812,328.844482 647.713562,326.688965 649.035522,324.122864 
	C650.000488,323.141541 650.500244,322.570770 651.000000,322.000000 
z"/>
<path fill="#C62828" opacity="1.000000" stroke="none" 
	d="
M615.000000,386.000000 
	C616.191467,383.508636 617.382935,381.017273 619.037537,378.119080 
	C620.000488,377.141541 620.500244,376.570770 621.000000,376.000000 
	C622.162598,373.481506 623.325256,370.963013 625.077271,368.222260 
	C626.111084,368.000000 626.555542,368.000000 627.003845,368.003174 
	C627.007690,368.006317 627.024414,368.019257 627.024414,368.019257 
	C623.553528,374.579376 620.082642,381.139465 616.309937,387.854065 
	C616.008057,388.008514 616.000000,388.000000 615.900330,387.737915 
	C615.533752,386.983887 615.266907,386.491943 615.000000,386.000000 
z"/>
<path fill="#C62828" opacity="1.000000" stroke="none" 
	d="
M631.000000,357.000000 
	C632.191467,354.508636 633.382874,352.017242 635.037537,349.119080 
	C636.000488,348.141541 636.500244,347.570770 637.000000,347.000000 
	C637.829773,345.148834 638.659546,343.297638 640.078003,341.223236 
	C641.111084,341.000000 641.555542,341.000000 642.000000,341.000000 
	C642.000000,341.000000 642.008118,341.008545 642.016235,341.017151 
	C638.886841,346.917084 635.749329,352.808380 632.309937,358.854126 
	C632.008118,359.008545 632.000000,359.000000 631.900330,358.737915 
	C631.533752,357.983887 631.266907,357.491943 631.000000,357.000000 
z"/>
<path fill="#C62828" opacity="1.000000" stroke="none" 
	d="
M583.000000,446.000000 
	C584.896667,441.875153 586.793335,437.750305 589.243408,433.312744 
	C590.858154,432.999573 591.919556,432.999176 592.980957,432.998779 
	C590.159790,438.189209 587.338562,443.379639 584.209106,448.474792 
	C583.600525,447.586334 583.300232,446.793152 583.000000,446.000000 
z"/>
<path fill="#C62828" opacity="1.000000" stroke="none" 
	d="
M593.000000,427.000000 
	C595.163086,422.814209 597.326172,418.628418 600.077942,414.221313 
	C601.111084,414.000000 601.555542,414.000000 602.003845,414.003174 
	C602.007690,414.006317 602.024414,414.019287 602.024414,414.019287 
	C599.521973,419.202972 597.019592,424.386688 594.208984,429.475159 
	C593.600525,428.586609 593.300232,427.793304 593.000000,427.000000 
z"/>
<path fill="#C62828" opacity="1.000000" stroke="none" 
	d="
M574.320129,466.868805 
	C575.582458,462.233185 577.135986,457.429840 579.243164,452.313232 
	C580.857971,451.999603 581.919250,451.999207 582.980469,451.998779 
	C580.190735,456.899567 577.401001,461.800323 574.320129,466.868805 
z"/>
<path fill="#C62828" opacity="1.000000" stroke="none" 
	d="
M715.000000,213.000000 
	C715.233154,212.187241 715.466309,211.374466 716.100159,210.137024 
	C717.000549,209.141586 717.500305,208.570801 718.000000,208.000015 
	C718.229919,207.785599 718.454773,207.565964 719.031128,207.003494 
	C719.591858,205.777283 719.795959,204.888641 720.000000,204.000000 
	C720.514282,203.135620 721.028564,202.271225 722.104736,201.203430 
	C723.111084,201.000000 723.555542,201.000000 724.003845,201.003189 
	C724.007690,201.006378 724.024414,201.019333 724.024414,201.019348 
	C720.554565,206.916992 717.084717,212.814621 713.311401,218.860352 
	C713.008057,219.008453 713.000000,219.000000 712.900391,218.737915 
	C712.533813,217.983887 712.266907,217.491959 712.000000,217.000015 
	C712.233337,216.491257 712.466675,215.982498 713.100342,215.093048 
	C714.000549,214.141556 714.500244,213.570786 715.000000,213.000000 
z"/>
<path fill="#C62828" opacity="1.000000" stroke="none" 
	d="
M608.000000,399.000000 
	C609.829834,395.480743 611.659668,391.961487 614.078125,388.221130 
	C615.111084,388.000000 615.555542,388.000000 616.000000,388.000000 
	C616.000000,388.000000 616.008057,388.008514 616.016235,388.017151 
	C613.855408,392.540497 611.686340,397.055206 609.209106,401.474731 
	C608.600525,400.586365 608.300232,399.793182 608.000000,399.000000 
z"/>
<path fill="#C62828" opacity="1.000000" stroke="none" 
	d="
M701.000000,236.000000 
	C701.229919,235.785599 701.454773,235.565964 702.031128,235.003510 
	C702.591919,233.777298 702.795959,232.888657 703.000061,232.000015 
	C703.514282,231.135635 704.028564,230.271240 705.104736,229.203430 
	C706.111084,229.000000 706.555542,229.000000 707.003845,229.003159 
	C707.007690,229.006317 707.024414,229.019135 707.024414,229.019135 
	C704.219360,233.913895 701.414246,238.808640 698.308594,243.855927 
	C698.008057,244.008469 698.000000,244.000000 697.900391,243.737885 
	C697.533875,242.983856 697.266968,242.491913 697.000000,242.000000 
	C697.532654,240.834442 698.065369,239.668884 699.049438,238.107819 
	C700.000549,237.141556 700.500244,236.570786 701.000000,236.000000 
z"/>
<path fill="#C62828" opacity="1.000000" stroke="none" 
	d="
M466.000000,688.000000 
	C466.633667,685.909363 467.267365,683.818787 468.200867,681.220215 
	C469.000488,680.141541 469.500244,679.570801 470.000000,679.000000 
	C471.230499,676.207458 472.461029,673.414978 474.176300,670.311218 
	C475.101532,670.000000 475.542023,670.000000 475.982483,670.000000 
	C472.859558,676.237366 469.736572,682.474670 466.312134,688.617310 
	C466.007111,688.348389 466.003571,688.174194 466.000000,688.000000 
z"/>
<path fill="#C62828" opacity="1.000000" stroke="none" 
	d="
M505.000000,604.000000 
	C507.563263,598.541931 510.126526,593.083801 513.175537,587.312866 
	C514.101746,587.000000 514.542358,587.000000 514.982910,587.000000 
	C512.134216,592.825500 509.285522,598.650940 506.050293,604.577515 
	C505.437286,604.457520 505.216034,604.231323 505.000000,604.000000 
z"/>
<path fill="#C62828" opacity="1.000000" stroke="none" 
	d="
M496.000000,623.000000 
	C498.229492,617.879272 500.459015,612.758484 503.179382,607.319092 
	C504.117188,607.001038 504.564178,607.001587 505.011139,607.002136 
	C502.441956,612.790527 499.872803,618.578979 496.998810,624.443787 
	C496.462646,624.013489 496.231323,623.506714 496.000000,623.000000 
z"/>
<path fill="#C62828" opacity="1.000000" stroke="none" 
	d="
M667.000000,294.000000 
	C667.508484,292.817261 668.016907,291.634521 669.096008,290.225891 
	C670.111084,290.000000 670.555542,290.000000 671.003845,290.003174 
	C671.007690,290.006317 671.024414,290.019257 671.024414,290.019257 
	C668.854492,294.204071 666.684570,298.388885 664.207764,302.476624 
	C663.600525,301.586365 663.300232,300.793182 663.000000,300.000000 
	C663.532715,298.834473 664.065369,297.668915 665.049377,296.107849 
	C666.000488,295.141541 666.500244,294.570770 667.000000,294.000000 
z"/>
<path fill="#C62828" opacity="1.000000" stroke="none" 
	d="
M678.000000,275.000000 
	C678.508423,273.817230 679.016846,272.634491 680.095947,271.225891 
	C681.111084,271.000000 681.555542,271.000000 682.003845,271.003174 
	C682.007690,271.006317 682.024414,271.019165 682.024414,271.019165 
	C679.886169,274.913849 677.747864,278.808502 675.308838,282.855835 
	C675.008057,283.008514 675.000000,283.000000 674.900330,282.737915 
	C674.533752,281.983887 674.266907,281.491943 674.000000,281.000000 
	C674.532654,279.834442 675.065369,278.668915 676.049316,277.107819 
	C677.000427,276.141510 677.500183,275.570740 678.000000,275.000000 
z"/>
<path fill="#C62828" opacity="1.000000" stroke="none" 
	d="
M688.000000,258.000000 
	C688.508484,256.817261 689.016968,255.634506 690.096008,254.225891 
	C691.111084,254.000000 691.555542,254.000000 692.003845,254.003159 
	C692.007690,254.006317 692.024414,254.019135 692.024414,254.019135 
	C689.886108,257.913818 687.747864,261.808533 685.308838,265.855896 
	C685.008118,266.008545 685.000000,266.000000 684.900330,265.737915 
	C684.533752,264.983887 684.266907,264.491943 684.000000,264.000000 
	C684.532654,262.834442 685.065369,261.668915 686.049377,260.107849 
	C687.000488,259.141541 687.500244,258.570770 688.000000,258.000000 
z"/>
<path fill="#C62828" opacity="1.000000" stroke="none" 
	d="
M536.144409,543.692383 
	C535.542358,544.000000 535.101746,544.000000 534.330566,544.000000 
	C536.152344,539.800049 538.304749,535.600037 540.728516,531.200073 
	C541.000854,531.447021 541.001648,531.894104 541.003601,532.676636 
	C539.438477,536.469727 537.872192,539.927185 536.144409,543.692383 
z"/>
<path fill="#C62828" opacity="1.000000" stroke="none" 
	d="
M601.000000,412.000000 
	C601.898193,409.872223 602.796387,407.744415 604.245605,405.308289 
	C605.857971,404.999603 606.919250,404.999176 607.980469,404.998779 
	C606.189087,407.897095 604.397705,410.795410 602.315369,413.856506 
	C602.024414,414.019287 602.007690,414.006317 601.904175,413.741089 
	C601.533752,412.983887 601.266846,412.491943 601.000000,412.000000 
z"/>
<path fill="#C62828" opacity="1.000000" stroke="none" 
	d="
M731.000000,186.000000 
	C731.233276,185.491241 731.466614,184.982483 732.100342,184.093018 
	C733.000549,183.141556 733.500244,182.570770 734.228638,181.796600 
	C734.971497,180.728790 735.485779,179.864395 736.000000,179.000000 
	C736.233276,178.491226 736.466614,177.982483 737.183228,177.236862 
	C738.111084,177.000000 738.555542,177.000000 739.003845,177.003189 
	C739.007690,177.006378 739.024414,177.019333 739.024414,177.019318 
	C736.887634,180.583954 734.750854,184.148590 732.311096,187.860840 
	C732.008057,188.008453 732.000000,188.000000 731.900391,187.737915 
	C731.533813,186.983887 731.266907,186.491959 731.000000,186.000000 
z"/>
<path fill="#C62828" opacity="1.000000" stroke="none" 
	d="
M626.000000,366.000000 
	C627.164551,363.812347 628.329163,361.624725 630.080200,359.218536 
	C631.111084,359.000000 631.555542,359.000000 632.000000,359.000000 
	C632.000000,359.000000 632.008118,359.008545 632.016235,359.017151 
	C630.552856,361.914001 629.081360,364.802216 627.317139,367.854858 
	C627.024414,368.019257 627.007690,368.006317 626.904175,367.741089 
	C626.533752,366.983887 626.266907,366.491943 626.000000,366.000000 
z"/>
<path fill="#C62828" opacity="1.000000" stroke="none" 
	d="
M654.000000,316.000000 
	C655.164673,313.812378 656.329285,311.624756 658.083618,309.221008 
	C659.122620,309.010712 659.571777,309.016479 660.020996,309.022278 
	C658.550476,311.911591 657.079956,314.800934 655.316895,317.854767 
	C655.024414,318.019257 655.007690,318.006317 654.904175,317.741089 
	C654.533813,316.983887 654.266907,316.491943 654.000000,316.000000 
z"/>
<path fill="#C62828" opacity="1.000000" stroke="none" 
	d="
M754.000000,150.000015 
	C755.803711,147.435760 757.607361,144.871506 759.705750,142.529724 
	C760.001709,143.504715 760.002991,144.257217 760.004272,145.009720 
	C758.840576,146.867767 757.676758,148.725815 756.010437,150.669678 
	C755.005249,150.503662 754.502625,150.251831 754.000000,150.000015 
z"/>
<path fill="#C62828" opacity="1.000000" stroke="none" 
	d="
M753.849976,150.236862 
	C754.502625,150.251831 755.005249,150.503662 755.759399,150.881805 
	C754.511902,153.532272 753.012939,156.056396 751.207397,158.479721 
	C750.600525,157.585953 750.300293,156.792969 750.000000,156.000000 
	C750.233337,155.491241 750.466614,154.982498 751.100342,154.093018 
	C752.000488,153.141510 752.500244,152.570740 753.000000,151.999969 
	C753.233276,151.491241 753.466614,150.982483 753.849976,150.236862 
z"/>
<path fill="#C62828" opacity="1.000000" stroke="none" 
	d="
M660.011841,309.013245 
	C659.571777,309.016479 659.122620,309.010712 658.336670,309.002441 
	C659.553467,306.197540 661.106934,303.395081 662.830200,300.296326 
	C663.300232,300.793182 663.600525,301.586365 663.952881,302.696075 
	C663.473267,304.175232 662.941589,305.337860 661.957214,306.894928 
	C661.007935,307.864349 660.511353,308.439301 660.014832,309.014252 
	C660.014832,309.014252 660.002747,309.004242 660.011841,309.013245 
z"/>
<path fill="#C62828" opacity="1.000000" stroke="none" 
	d="
M670.000000,288.000000 
	C670.834106,286.475830 671.668274,284.951660 673.084473,283.213745 
	C674.111084,283.000000 674.555542,283.000000 675.000000,283.000000 
	C675.000000,283.000000 675.008057,283.008514 675.016235,283.017151 
	C673.886658,285.246796 672.748901,287.467834 671.317810,289.854065 
	C671.024414,290.019257 671.007690,290.006317 670.904175,289.741089 
	C670.533752,288.983887 670.266907,288.491943 670.000000,288.000000 
z"/>
<path fill="#C62828" opacity="1.000000" stroke="none" 
	d="
M743.000000,167.000000 
	C743.233337,166.491257 743.466614,165.982498 744.100342,165.093033 
	C745.000549,164.141556 745.500244,163.570770 746.000000,163.000000 
	C746.229919,162.785599 746.454773,162.565964 747.172485,162.170868 
	C748.117737,162.001358 748.565002,162.002075 749.012207,162.002792 
	C747.512878,164.528671 746.013550,167.054535 744.207520,169.479568 
	C743.600525,168.585815 743.300232,167.792908 743.000000,167.000000 
z"/>
<path fill="#C62828" opacity="1.000000" stroke="none" 
	d="
M749.240356,161.800354 
	C748.565002,162.002075 748.117737,162.001358 747.335266,162.000336 
	C747.852539,160.169586 748.705017,158.339172 749.778748,156.254379 
	C750.300293,156.792969 750.600525,157.585953 750.952881,158.695343 
	C750.492737,159.873795 749.980591,160.735840 749.240356,161.800354 
z"/>
<path fill="#C62828" opacity="1.000000" stroke="none" 
	d="
M725.000000,196.000000 
	C725.856934,194.496506 726.713867,192.992996 727.935974,191.526428 
	C728.535706,192.378769 728.770325,193.194199 729.004883,194.009613 
	C728.492859,194.874100 727.980835,195.738586 726.988342,196.679291 
	C726.005249,196.503662 725.502625,196.251831 725.000000,196.000000 
z"/>
<path fill="#C62828" opacity="1.000000" stroke="none" 
	d="
M742.785400,167.244751 
	C743.300232,167.792908 743.600525,168.585815 743.952820,169.695099 
	C743.492676,170.875153 742.980530,171.738815 741.987915,172.678833 
	C741.005066,172.503448 740.502502,172.251724 740.000000,172.000000 
	C740.856934,170.496490 741.713867,168.992996 742.785400,167.244751 
z"/>
<path fill="#C62828" opacity="1.000000" stroke="none" 
	d="
M729.260498,193.786469 
	C728.770325,193.194199 728.535706,192.378769 728.150574,191.281677 
	C728.514282,190.135620 729.028564,189.271240 730.104736,188.203430 
	C731.111084,188.000000 731.555542,188.000000 732.000000,188.000000 
	C732.000000,188.000000 732.008057,188.008453 732.016235,188.017014 
	C731.188354,189.871475 730.352234,191.717392 729.260498,193.786469 
z"/>
<path fill="#C62828" opacity="1.000000" stroke="none" 
	d="
M608.104492,404.707520 
	C606.919250,404.999176 605.857971,404.999603 604.398376,405.000000 
	C605.223083,403.191589 606.446167,401.383209 607.834656,399.287415 
	C608.300232,399.793182 608.600525,400.586365 608.952881,401.696075 
	C608.746094,402.813812 608.487305,403.615021 608.104492,404.707520 
z"/>
<path fill="#C62828" opacity="1.000000" stroke="none" 
	d="
M583.104492,451.707520 
	C581.919250,451.999207 580.857971,451.999603 579.398376,452.000000 
	C580.223083,450.191620 581.446228,448.383240 582.834656,446.287415 
	C583.300232,446.793152 583.600525,447.586334 583.952881,448.696045 
	C583.746094,449.813812 583.487305,450.615021 583.104492,451.707520 
z"/>
<path fill="#C62828" opacity="1.000000" stroke="none" 
	d="
M592.834656,427.287415 
	C593.300232,427.793304 593.600525,428.586609 593.952881,429.696503 
	C593.746277,430.814178 593.487671,431.615265 593.104980,432.707581 
	C591.919556,432.999176 590.858154,432.999573 589.398376,433.000000 
	C590.223083,431.191620 591.446228,429.383240 592.834656,427.287415 
z"/>
<path fill="#C62828" opacity="1.000000" stroke="none" 
	d="
M709.000000,222.000000 
	C709.514221,221.135590 710.028503,220.271210 711.104736,219.203400 
	C712.111084,219.000000 712.555542,219.000000 713.000000,219.000000 
	C713.000000,219.000000 713.008057,219.008453 713.016235,219.017014 
	C712.218445,220.582031 711.412415,222.138489 710.307251,223.851715 
	C710.008057,224.008469 710.000000,224.000000 709.900391,223.737900 
	C709.533813,222.983871 709.266907,222.491943 709.000000,222.000000 
z"/>
<path fill="#C62828" opacity="1.000000" stroke="none" 
	d="
M706.000000,227.000000 
	C706.514221,226.135590 707.028503,225.271210 708.104736,224.203400 
	C709.111084,224.000000 709.555542,224.000000 710.000000,224.000000 
	C710.000000,224.000000 710.008057,224.008469 710.016235,224.017029 
	C709.217346,225.579453 708.410217,227.133301 707.313782,228.853149 
	C707.024414,229.019135 707.007690,229.006317 706.904236,228.741058 
	C706.533875,227.983856 706.266968,227.491928 706.000000,227.000000 
z"/>
<path fill="#C62828" opacity="1.000000" stroke="none" 
	d="
M681.000000,269.000031 
	C681.514282,268.135620 682.028503,267.271240 683.104675,266.203430 
	C684.111084,266.000000 684.555542,266.000000 685.000000,266.000000 
	C685.000000,266.000000 685.008118,266.008545 685.016235,266.017151 
	C684.217346,267.579590 683.410217,269.133392 682.313721,270.853149 
	C682.024414,271.019165 682.007690,271.006317 681.904175,270.741089 
	C681.533752,269.983917 681.266846,269.491974 681.000000,269.000031 
z"/>
<path fill="#C62828" opacity="1.000000" stroke="none" 
	d="
M691.000000,252.000000 
	C691.514282,251.135605 692.028503,250.271225 693.104736,249.203415 
	C694.111084,249.000000 694.555542,249.000000 695.003845,249.003159 
	C695.007690,249.006317 695.024414,249.019135 695.024414,249.019135 
	C694.217346,250.575272 693.410217,252.131409 692.313721,253.853333 
	C692.024414,254.019135 692.007690,254.006317 691.904236,253.741058 
	C691.533875,252.983871 691.266907,252.491943 691.000000,252.000000 
z"/>
<path fill="#C62828" opacity="1.000000" stroke="none" 
	d="
M694.000000,247.000000 
	C694.514282,246.135605 695.028503,245.271225 696.104736,244.203415 
	C697.111084,244.000000 697.555542,244.000000 698.000000,244.000000 
	C698.000000,244.000000 698.008057,244.008469 698.016235,244.017029 
	C697.217285,245.579437 696.410217,247.133286 695.313721,248.853134 
	C695.024414,249.019135 695.007690,249.006317 694.904236,248.741058 
	C694.533875,247.983871 694.266907,247.491928 694.000000,247.000000 
z"/>
<path fill="#C62828" opacity="1.000000" stroke="none" 
	d="
M739.771423,172.203430 
	C740.502502,172.251724 741.005066,172.503448 741.759033,172.881424 
	C741.203003,174.241531 740.395508,175.475403 739.306213,176.864288 
	C739.024414,177.019333 739.007690,177.006378 738.904236,176.741089 
	C738.533813,175.983871 738.266907,175.491943 738.000000,175.000015 
	C738.514282,174.135635 739.028564,173.271240 739.771423,172.203430 
z"/>
<path fill="#C62828" opacity="1.000000" stroke="none" 
	d="
M724.771362,196.203400 
	C725.502625,196.251831 726.005249,196.503662 726.759399,196.881836 
	C726.203308,198.241867 725.395630,199.475571 724.306213,200.864304 
	C724.024414,201.019333 724.007690,201.006378 723.904236,200.741089 
	C723.533875,199.983871 723.266907,199.491928 723.000000,199.000000 
	C723.514221,198.135590 724.028503,197.271194 724.771362,196.203400 
z"/>
<path fill="#C62828" opacity="1.000000" stroke="none" 
	d="
M515.113525,586.660217 
	C514.542358,587.000000 514.101746,587.000000 513.330566,587.000000 
	C513.818481,585.128479 514.636963,583.257019 515.727722,581.192749 
	C516.003540,581.174194 516.007080,581.348389 516.017456,581.784363 
	C515.764282,583.470886 515.504211,584.895691 515.113525,586.660217 
z"/>
<path fill="#C62828" opacity="1.000000" stroke="none" 
	d="
M476.110138,669.749695 
	C475.542023,670.000000 475.101532,670.000000 474.330566,670.000000 
	C474.488556,668.796814 474.977081,667.593628 475.732788,666.195190 
	C476.231323,666.506714 476.462646,667.013489 476.842682,667.755859 
	C476.740204,668.494080 476.489014,668.996765 476.110138,669.749695 
z"/>
<path fill="#C62828" opacity="1.000000" stroke="none" 
	d="
M495.732788,623.195190 
	C496.231323,623.506714 496.462646,624.013489 496.842682,624.755859 
	C496.740265,625.494080 496.489166,625.996704 496.110229,626.749634 
	C495.541962,627.000000 495.101501,627.000000 494.330505,627.000000 
	C494.488525,625.796814 494.977051,624.593628 495.732788,623.195190 
z"/>
<path fill="#C62828" opacity="1.000000" stroke="none" 
	d="
M505.161987,606.766602 
	C504.564178,607.001587 504.117188,607.001038 503.335083,607.000244 
	C503.493744,606.115356 503.987488,605.230713 504.740601,604.173096 
	C505.216034,604.231323 505.437286,604.457520 505.835571,604.842529 
	C505.775879,605.514709 505.544342,606.022827 505.161987,606.766602 
z"/>
<path fill="#C62828" opacity="1.000000" stroke="none" 
	d="
M465.732788,688.195190 
	C466.003571,688.174194 466.007111,688.348389 466.017883,688.784363 
	C466.016632,689.784241 466.008240,690.522400 465.992126,691.630249 
	C465.543518,692.000000 465.102600,692.000000 464.330841,692.000000 
	C464.488525,690.796814 464.977051,689.593628 465.732788,688.195190 
z"/>
<path fill="#C62828" opacity="1.000000" stroke="none" 
	d="
M760.233887,144.806229 
	C760.002991,144.257217 760.001709,143.504715 760.000244,142.376099 
	C760.000000,142.000000 760.500000,142.000000 760.750000,142.000000 
	C761.168518,142.000717 761.337097,142.001419 761.758545,142.003479 
	C761.495483,142.870819 760.979492,143.736771 760.233887,144.806229 
z"/>
<path fill="#C62828" opacity="1.000000" stroke="none" 
	d="
M660.265625,308.870361 
	C660.511353,308.439301 661.007935,307.864349 661.755676,307.145447 
	C661.510071,307.576508 661.013245,308.151489 660.265625,308.870361 
z"/>
<path fill="#6D4C41" opacity="1.000000" stroke="none" 
	d="
M1001.080566,615.656982 
	C1000.804077,615.477905 1000.471130,615.004944 1000.074585,614.245911 
	C1000.348694,614.427673 1000.686401,614.895386 1001.080566,615.656982 
z"/>
<path fill="#E47272" opacity="1.000000" stroke="none" 
	d="
M504.988251,976.984741 
	C504.978058,976.973694 504.923248,977.023315 504.971863,977.019043 
	C505.020477,977.014771 504.998444,976.995728 504.988251,976.984741 
z"/>
<path fill="#C62828" opacity="1.000000" stroke="none" 
	d="
M377.773254,893.823486 
	C375.321411,901.806274 372.689789,909.629150 369.936829,917.409119 
	C369.065125,919.872559 367.869354,922.221313 366.163666,924.422546 
	C369.139679,910.905823 372.830048,897.604431 377.813416,884.304077 
	C377.848846,887.215637 377.697693,890.431274 377.773254,893.823486 
z"/>
<path fill="#C62828" opacity="1.000000" stroke="none" 
	d="
M381.285339,871.810852 
	C382.814636,867.134827 384.629272,862.269653 386.721985,857.202271 
	C385.190277,861.873901 383.380493,866.747803 381.285339,871.810852 
z"/>
<path fill="#C62828" opacity="1.000000" stroke="none" 
	d="
M387.260864,852.840576 
	C387.547729,851.523132 388.095490,850.046326 388.821625,848.284790 
	C388.507263,849.560364 388.014526,851.120728 387.260864,852.840576 
z"/>
<path fill="#C62828" opacity="1.000000" stroke="none" 
	d="
M378.259369,881.826904 
	C378.493774,881.115356 378.987518,880.230774 379.740631,879.173096 
	C379.506226,879.884644 379.012482,880.769226 378.259369,881.826904 
z"/>
<path fill="#C62828" opacity="1.000000" stroke="none" 
	d="
M383.740601,881.173096 
	C383.506256,881.884644 383.012482,882.769226 382.259338,883.826904 
	C382.493713,883.115356 382.987488,882.230713 383.740601,881.173096 
z"/>
<path fill="#C62828" opacity="1.000000" stroke="none" 
	d="
M388.740662,869.173096 
	C388.485809,869.864441 387.971558,870.728821 387.228638,871.796631 
	C387.493744,871.115356 387.987518,870.230774 388.740662,869.173096 
z"/>
<path fill="#C62828" opacity="1.000000" stroke="none" 
	d="
M719.849731,204.280838 
	C719.795959,204.888641 719.591858,205.777283 719.193909,206.832962 
	C719.233154,206.187225 719.466248,205.374451 719.849731,204.280838 
z"/>
<path fill="#C62828" opacity="1.000000" stroke="none" 
	d="
M735.740601,179.173065 
	C735.485779,179.864395 734.971497,180.728790 734.228638,181.796570 
	C734.493713,181.115356 734.987488,180.230743 735.740601,179.173065 
z"/>
<path fill="#C62828" opacity="1.000000" stroke="none" 
	d="
M702.849731,232.280853 
	C702.795959,232.888657 702.591919,233.777298 702.193970,234.832977 
	C702.233154,234.187225 702.466309,233.374451 702.849731,232.280853 
z"/>
<path fill="#C62828" opacity="1.000000" stroke="none" 
	d="
M448.749634,726.143799 
	C448.500244,726.570801 448.000488,727.141541 447.250366,727.856201 
	C447.499756,727.429199 447.999512,726.858398 448.749634,726.143799 
z"/>
<path fill="#C62828" opacity="1.000000" stroke="none" 
	d="
M431.749634,765.143799 
	C431.500214,765.570740 431.000458,766.141541 430.250366,766.856140 
	C430.499756,766.429199 430.999512,765.858459 431.749634,765.143799 
z"/>
<path fill="#C62828" opacity="1.000000" stroke="none" 
	d="
M469.749634,679.143799 
	C469.500244,679.570801 469.000488,680.141541 468.250366,680.856201 
	C468.499786,680.429260 468.999542,679.858459 469.749634,679.143799 
z"/>
<path fill="#C62828" opacity="1.000000" stroke="none" 
	d="
M444.749634,735.143799 
	C444.500244,735.570801 444.000488,736.141541 443.250366,736.856201 
	C443.499756,736.429199 443.999512,735.858459 444.749634,735.143799 
z"/>
<path fill="#C62828" opacity="1.000000" stroke="none" 
	d="
M412.749634,810.143799 
	C412.500275,810.570801 412.000519,811.141602 411.250366,811.856201 
	C411.499725,811.429199 411.999481,810.858398 412.749634,810.143799 
z"/>
<path fill="#C62828" opacity="1.000000" stroke="none" 
	d="
M441.749634,742.143799 
	C441.500244,742.570801 441.000488,743.141541 440.250366,743.856201 
	C440.499756,743.429199 440.999512,742.858459 441.749634,742.143799 
z"/>
<path fill="#C62828" opacity="1.000000" stroke="none" 
	d="
M415.749603,803.143799 
	C415.500214,803.570740 415.000458,804.141541 414.250336,804.856201 
	C414.499725,804.429199 414.999481,803.858398 415.749603,803.143799 
z"/>
<path fill="#C62828" opacity="1.000000" stroke="none" 
	d="
M438.749634,749.143799 
	C438.500244,749.570801 438.000488,750.141541 437.250366,750.856201 
	C437.499756,750.429199 437.999512,749.858459 438.749634,749.143799 
z"/>
<path fill="#C62828" opacity="1.000000" stroke="none" 
	d="
M420.749634,791.143799 
	C420.500275,791.570801 420.000519,792.141602 419.250366,792.856201 
	C419.499756,792.429199 419.999512,791.858459 420.749634,791.143799 
z"/>
<path fill="#C62828" opacity="1.000000" stroke="none" 
	d="
M423.749634,784.143799 
	C423.500214,784.570740 423.000458,785.141541 422.250366,785.856201 
	C422.499756,785.429199 422.999512,784.858459 423.749634,784.143799 
z"/>
<path fill="#C62828" opacity="1.000000" stroke="none" 
	d="
M428.749634,772.143799 
	C428.500244,772.570801 428.000488,773.141541 427.250366,773.856201 
	C427.499756,773.429199 427.999512,772.858459 428.749634,772.143799 
z"/>
<path fill="#C62828" opacity="1.000000" stroke="none" 
	d="
M435.749634,756.143799 
	C435.500244,756.570801 435.000488,757.141541 434.250366,757.856201 
	C434.499756,757.429199 434.999512,756.858459 435.749634,756.143799 
z"/>
<path fill="#C62828" opacity="1.000000" stroke="none" 
	d="
M410.749664,815.143799 
	C410.500275,815.570801 410.000519,816.141602 409.250397,816.856201 
	C409.499786,816.429260 409.999542,815.858459 410.749664,815.143799 
z"/>
<path fill="#C62828" opacity="1.000000" stroke="none" 
	d="
M405.749634,827.143799 
	C405.500244,827.570801 405.000488,828.141541 404.250366,828.856201 
	C404.499786,828.429260 404.999542,827.858459 405.749634,827.143799 
z"/>
<path fill="#C62828" opacity="1.000000" stroke="none" 
	d="
M401.749634,837.143799 
	C401.500244,837.570801 401.000488,838.141541 400.250366,838.856201 
	C400.499756,838.429199 400.999512,837.858398 401.749634,837.143799 
z"/>
<path fill="#C62828" opacity="1.000000" stroke="none" 
	d="
M399.749634,842.143799 
	C399.500244,842.570801 399.000488,843.141541 398.250366,843.856201 
	C398.499786,843.429260 398.999542,842.858459 399.749634,842.143799 
z"/>
<path fill="#C62828" opacity="1.000000" stroke="none" 
	d="
M396.749634,849.143799 
	C396.500214,849.570740 396.000458,850.141541 395.250366,850.856140 
	C395.499756,850.429199 395.999512,849.858459 396.749634,849.143799 
z"/>
<path fill="#C62828" opacity="1.000000" stroke="none" 
	d="
M394.749634,854.143799 
	C394.500244,854.570801 394.000488,855.141541 393.250366,855.856201 
	C393.499756,855.429199 393.999512,854.858459 394.749634,854.143799 
z"/>
<path fill="#C62828" opacity="1.000000" stroke="none" 
	d="
M392.749634,859.143799 
	C392.500214,859.570740 392.000458,860.141541 391.250366,860.856140 
	C391.499756,860.429199 391.999512,859.858459 392.749634,859.143799 
z"/>
<path fill="#C62828" opacity="1.000000" stroke="none" 
	d="
M390.749634,864.143799 
	C390.500244,864.570801 390.000488,865.141602 389.250366,865.856201 
	C389.499756,865.429199 389.999512,864.858459 390.749634,864.143799 
z"/>
<path fill="#C62828" opacity="1.000000" stroke="none" 
	d="
M722.849976,199.236877 
	C723.266907,199.491928 723.533875,199.983871 723.900391,200.737900 
	C723.555542,201.000000 723.111084,201.000000 722.333313,201.000000 
	C722.233337,200.491241 722.466675,199.982498 722.849976,199.236877 
z"/>
<path fill="#C62828" opacity="1.000000" stroke="none" 
	d="
M380.190155,875.898438 
	C380.233337,875.491211 380.466644,874.982483 380.849976,874.236816 
	C380.793427,874.598999 380.586853,875.197937 380.190155,875.898438 
z"/>
<path fill="#C62828" opacity="1.000000" stroke="none" 
	d="
M381.749634,887.143799 
	C381.500214,887.570740 381.000458,888.141541 380.250366,888.856201 
	C380.499786,888.429260 380.999542,887.858459 381.749634,887.143799 
z"/>
<path fill="#C62828" opacity="1.000000" stroke="none" 
	d="
M379.749634,892.143799 
	C379.500244,892.570740 379.000488,893.141541 378.250366,893.856201 
	C378.499725,893.429199 378.999481,892.858398 379.749634,892.143799 
z"/>
<path fill="#C62828" opacity="1.000000" stroke="none" 
	d="
M752.749573,152.143814 
	C752.500244,152.570740 752.000488,153.141510 751.250366,153.856140 
	C751.499695,153.429214 751.999451,152.858429 752.749573,152.143814 
z"/>
<path fill="#C62828" opacity="1.000000" stroke="none" 
	d="
M731.900391,187.737915 
	C731.555542,188.000000 731.111084,188.000000 730.333374,188.000000 
	C730.233398,187.491272 730.466736,186.982529 730.849976,186.236908 
	C731.266907,186.491959 731.533813,186.983887 731.900391,187.737915 
z"/>
<path fill="#C62828" opacity="1.000000" stroke="none" 
	d="
M733.749634,182.143845 
	C733.500244,182.570770 733.000549,183.141556 732.250366,183.856171 
	C732.499756,183.429245 732.999512,182.858459 733.749634,182.143845 
z"/>
<path fill="#C62828" opacity="1.000000" stroke="none" 
	d="
M641.900330,340.737915 
	C641.555542,341.000000 641.111084,341.000000 640.333313,341.000000 
	C640.233337,340.491241 640.466675,339.982513 640.849976,339.236877 
	C641.266846,339.491943 641.533752,339.983887 641.900330,340.737915 
z"/>
<path fill="#C62828" opacity="1.000000" stroke="none" 
	d="
M615.900330,387.737915 
	C615.555542,388.000000 615.111084,388.000000 614.333313,388.000000 
	C614.233337,387.491241 614.466675,386.982483 614.849976,386.236877 
	C615.266907,386.491943 615.533752,386.983887 615.900330,387.737915 
z"/>
<path fill="#C62828" opacity="1.000000" stroke="none" 
	d="
M452.749634,717.143799 
	C452.500244,717.570801 452.000488,718.141541 451.250366,718.856201 
	C451.499756,718.429199 451.999512,717.858398 452.749634,717.143799 
z"/>
<path fill="#C62828" opacity="1.000000" stroke="none" 
	d="
M690.850037,252.236893 
	C691.266907,252.491943 691.533875,252.983871 691.900391,253.737900 
	C691.555542,254.000000 691.111084,254.000000 690.333374,254.000000 
	C690.233398,253.491272 690.466736,252.982529 690.850037,252.236893 
z"/>
<path fill="#C62828" opacity="1.000000" stroke="none" 
	d="
M625.849976,366.236877 
	C626.266907,366.491943 626.533752,366.983887 626.900330,367.737915 
	C626.555542,368.000000 626.111084,368.000000 625.333313,368.000000 
	C625.233337,367.491241 625.466675,366.982513 625.849976,366.236877 
z"/>
<path fill="#C62828" opacity="1.000000" stroke="none" 
	d="
M687.749634,258.143860 
	C687.500244,258.570770 687.000488,259.141541 686.250366,259.856171 
	C686.499817,259.429260 686.999573,258.858490 687.749634,258.143860 
z"/>
<path fill="#C62828" opacity="1.000000" stroke="none" 
	d="
M631.900330,358.737915 
	C631.555542,359.000000 631.111084,359.000000 630.333374,359.000000 
	C630.233398,358.491272 630.466736,357.982513 630.850037,357.236877 
	C631.266907,357.491943 631.533752,357.983887 631.900330,358.737915 
z"/>
<path fill="#C62828" opacity="1.000000" stroke="none" 
	d="
M636.749634,347.143860 
	C636.500244,347.570770 636.000488,348.141541 635.250366,348.856140 
	C635.499756,348.429230 635.999512,347.858459 636.749634,347.143860 
z"/>
<path fill="#C62828" opacity="1.000000" stroke="none" 
	d="
M684.900330,265.737915 
	C684.555542,266.000000 684.111084,266.000000 683.333313,266.000000 
	C683.233337,265.491272 683.466675,264.982513 683.849976,264.236877 
	C684.266907,264.491943 684.533752,264.983887 684.900330,265.737915 
z"/>
<path fill="#C62828" opacity="1.000000" stroke="none" 
	d="
M620.749634,376.143860 
	C620.500244,376.570770 620.000488,377.141541 619.250366,377.856140 
	C619.499756,377.429230 619.999512,376.858459 620.749634,376.143860 
z"/>
<path fill="#C62828" opacity="1.000000" stroke="none" 
	d="
M645.749634,331.143860 
	C645.500244,331.570770 645.000488,332.141541 644.250366,332.856140 
	C644.499756,332.429230 644.999512,331.858459 645.749634,331.143860 
z"/>
<path fill="#C62828" opacity="1.000000" stroke="none" 
	d="
M650.749634,322.143860 
	C650.500244,322.570770 650.000488,323.141541 649.250366,323.856140 
	C649.499756,323.429230 649.999512,322.858459 650.749634,322.143860 
z"/>
<path fill="#C62828" opacity="1.000000" stroke="none" 
	d="
M653.849976,316.236877 
	C654.266907,316.491943 654.533813,316.983887 654.900330,317.737915 
	C654.555542,318.000000 654.111084,318.000000 653.333252,318.000000 
	C653.233276,317.491241 653.466614,316.982483 653.849976,316.236877 
z"/>
<path fill="#C62828" opacity="1.000000" stroke="none" 
	d="
M680.849976,269.236877 
	C681.266846,269.491974 681.533752,269.983917 681.900269,270.737915 
	C681.555542,271.000000 681.111084,271.000000 680.333313,271.000000 
	C680.233337,270.491241 680.466675,269.982483 680.849976,269.236877 
z"/>
<path fill="#C62828" opacity="1.000000" stroke="none" 
	d="
M677.749634,275.143860 
	C677.500183,275.570740 677.000427,276.141510 676.250366,276.856140 
	C676.499756,276.429260 676.999512,275.858490 677.749634,275.143860 
z"/>
<path fill="#C62828" opacity="1.000000" stroke="none" 
	d="
M666.749634,294.143860 
	C666.500244,294.570770 666.000488,295.141541 665.250366,295.856140 
	C665.499756,295.429230 665.999512,294.858459 666.749634,294.143860 
z"/>
<path fill="#C62828" opacity="1.000000" stroke="none" 
	d="
M674.900330,282.737915 
	C674.555542,283.000000 674.111084,283.000000 673.333313,283.000000 
	C673.233337,282.491272 673.466675,281.982513 673.849976,281.236877 
	C674.266907,281.491943 674.533752,281.983887 674.900330,282.737915 
z"/>
<path fill="#C62828" opacity="1.000000" stroke="none" 
	d="
M600.850037,412.236877 
	C601.266846,412.491943 601.533752,412.983887 601.900330,413.737915 
	C601.555542,414.000000 601.111084,414.000000 600.333374,414.000000 
	C600.233398,413.491272 600.466736,412.982513 600.850037,412.236877 
z"/>
<path fill="#C62828" opacity="1.000000" stroke="none" 
	d="
M745.749634,163.143845 
	C745.500244,163.570770 745.000549,164.141556 744.250366,164.856171 
	C744.499756,164.429245 744.999512,163.858475 745.749634,163.143845 
z"/>
<path fill="#C62828" opacity="1.000000" stroke="none" 
	d="
M456.749634,708.143799 
	C456.500244,708.570801 456.000488,709.141541 455.250366,709.856201 
	C455.499725,709.429199 455.999481,708.858398 456.749634,708.143799 
z"/>
<path fill="#C62828" opacity="1.000000" stroke="none" 
	d="
M460.749634,699.143799 
	C460.500244,699.570801 460.000488,700.141541 459.250366,700.856201 
	C459.499725,700.429199 459.999481,699.858398 460.749634,699.143799 
z"/>
<path fill="#C62828" opacity="1.000000" stroke="none" 
	d="
M669.849976,288.236877 
	C670.266907,288.491943 670.533752,288.983887 670.900330,289.737915 
	C670.555542,290.000000 670.111084,290.000000 669.333252,290.000000 
	C669.233276,289.491241 669.466614,288.982483 669.849976,288.236877 
z"/>
<path fill="#C62828" opacity="1.000000" stroke="none" 
	d="
M717.749634,208.143860 
	C717.500305,208.570801 717.000549,209.141586 716.250427,209.856186 
	C716.499756,209.429230 716.999512,208.858459 717.749634,208.143860 
z"/>
<path fill="#C62828" opacity="1.000000" stroke="none" 
	d="
M480.749634,655.143799 
	C480.500244,655.570801 480.000488,656.141541 479.250366,656.856201 
	C479.499725,656.429199 479.999481,655.858398 480.749634,655.143799 
z"/>
<path fill="#C62828" opacity="1.000000" stroke="none" 
	d="
M487.749634,640.143799 
	C487.500244,640.570801 487.000488,641.141541 486.250366,641.856201 
	C486.499725,641.429199 486.999481,640.858398 487.749634,640.143799 
z"/>
<path fill="#C62828" opacity="1.000000" stroke="none" 
	d="
M714.749634,213.143829 
	C714.500244,213.570786 714.000549,214.141556 713.250366,214.856155 
	C713.499695,214.429199 713.999451,213.858429 714.749634,213.143829 
z"/>
<path fill="#C62828" opacity="1.000000" stroke="none" 
	d="
M712.900391,218.737915 
	C712.555542,219.000000 712.111084,219.000000 711.333313,219.000000 
	C711.233337,218.491257 711.466675,217.982513 711.849976,217.236893 
	C712.266907,217.491959 712.533813,217.983887 712.900391,218.737915 
z"/>
<path fill="#C62828" opacity="1.000000" stroke="none" 
	d="
M709.900391,223.737900 
	C709.555542,224.000000 709.111084,224.000000 708.333313,224.000000 
	C708.233337,223.491257 708.466675,222.982513 708.849976,222.236877 
	C709.266907,222.491943 709.533813,222.983871 709.900391,223.737900 
z"/>
<path fill="#C62828" opacity="1.000000" stroke="none" 
	d="
M737.849976,175.236893 
	C738.266907,175.491943 738.533813,175.983871 738.900391,176.737915 
	C738.555542,177.000000 738.111084,177.000000 737.333313,177.000000 
	C737.233337,176.491257 737.466675,175.982513 737.849976,175.236893 
z"/>
<path fill="#C62828" opacity="1.000000" stroke="none" 
	d="
M705.849976,227.236877 
	C706.266968,227.491928 706.533875,227.983856 706.900391,228.737900 
	C706.555542,229.000000 706.111084,229.000000 705.333313,229.000000 
	C705.233337,228.491257 705.466675,227.982513 705.849976,227.236877 
z"/>
<path fill="#C62828" opacity="1.000000" stroke="none" 
	d="
M700.749634,236.143829 
	C700.500244,236.570786 700.000549,237.141556 699.250366,237.856155 
	C699.499695,237.429214 699.999451,236.858429 700.749634,236.143829 
z"/>
<path fill="#C62828" opacity="1.000000" stroke="none" 
	d="
M697.900391,243.737885 
	C697.555542,244.000000 697.111084,244.000000 696.333252,244.000000 
	C696.233276,243.491241 696.466614,242.982498 696.849976,242.236877 
	C697.266968,242.491913 697.533875,242.983856 697.900391,243.737885 
z"/>
<path fill="#C62828" opacity="1.000000" stroke="none" 
	d="
M693.849976,247.236877 
	C694.266907,247.491928 694.533875,247.983871 694.900391,248.737900 
	C694.555542,249.000000 694.111084,249.000000 693.333313,249.000000 
	C693.233337,248.491257 693.466675,247.982513 693.849976,247.236877 
z"/>
<path fill="#8C6D62" opacity="1.000000" stroke="none" 
	d="
M844.184448,524.393799 
	C844.378906,524.328796 844.555115,524.558533 844.847900,524.972656 
	C844.705322,524.995483 844.439270,524.839294 844.184448,524.393799 
z"/>
</svg>